<svg enable-background="new 0 0 512 512" viewBox="0 0 512 512" xmlns="http://www.w3.org/2000/svg"><path d="m170.667 423.721h-161.839c-4.875 0-8.828-3.953-8.828-8.828v-317.792c0-4.875 3.953-8.828 8.828-8.828h161.839z" fill="#41479b"/><path d="m170.67 88.277h170.67v335.45h-170.67z" fill="#ffe15a"/><path d="m503.172 423.721h-161.839v-335.448h161.839c4.875 0 8.828 3.953 8.828 8.828v317.792c0 4.876-3.953 8.828-8.828 8.828z" fill="#ff4b55"/><path d="m316.022 284.688c0-2.562-2.077-4.64-4.64-4.64-.556 0-1.082.114-1.577.294-2.296-2.042-6.457-7.109-2.282-14.264.564.439 1.265.711 2.035.711 1.841 0 3.332-1.492 3.332-3.332 0-1.454-.937-2.678-2.236-3.133 3.431-1.75 8.324-5.465 8.072-12.412-.359-9.852-8.429-15.29-13.38-13.116.018-.138.042-.274.042-.416 0-1.815-1.471-3.286-3.286-3.286-1.116 0-2.098.559-2.691 1.409-.202-.985-.178-2.814 2.112-4.791 4.253-3.673 9.086-12.469.29-18.655-4.871-3.425-14.181-5.066-17.301-.386-1.353 2.029-.268 4.945 1.277 5.6-2.489 1.388-7.211 3.471-10.942 1.843-5.316-2.319-2.246-6.926-1.063-8.989 2.078-3.625.774-9.569-6.186-9.569-4.64 0-6.959 4.64-11.598 4.64s-6.959-4.64-11.598-4.64c-6.959 0-8.264 5.944-6.186 9.569 1.183 2.062 4.253 6.669-1.063 8.989-3.731 1.629-8.452-.455-10.942-1.843 1.544-.654 2.63-3.57 1.277-5.6-3.119-4.679-12.43-3.039-17.301.386-8.796 6.186-3.962 14.981.29 18.655 2.29 1.977 2.314 3.807 2.112 4.791-.594-.85-1.576-1.409-2.691-1.409-1.815 0-3.286 1.471-3.286 3.286 0 .142.024.279.042.416-4.951-2.175-13.022 3.264-13.38 13.116-.253 6.946 4.641 10.661 8.072 12.412-1.299.456-2.236 1.679-2.236 3.133 0 1.841 1.492 3.332 3.332 3.332.77 0 1.47-.271 2.035-.711 4.175 7.155.015 12.222-2.282 14.264-.494-.18-1.021-.294-1.577-.294-2.562 0-4.64 2.077-4.64 4.64 0 2.405 1.837 4.36 4.182 4.594-3.198 3.285-6.067 10.525.168 18.749 6.814 8.989 23.052 8.264 30.881 8.554 4.964.184 8.698 2.754 10.771 4.613-1.325.817-2.217 2.269-2.217 3.94 0 2.343 1.743 4.26 4 4.575.82 1.312 2.265 2.191 3.926 2.191 1.856 0 3.445-1.097 4.188-2.673 2.45 2.019 4.125 2.866 4.125 2.866s1.675-.846 4.125-2.866c.742 1.575 2.332 2.673 4.188 2.673 1.661 0 3.106-.879 3.926-2.191 2.257-.315 4-2.232 4-4.575 0-1.672-.892-3.124-2.217-3.94 2.072-1.859 5.806-4.43 10.771-4.613 7.829-.29 24.067.435 30.881-8.554 6.234-8.224 3.366-15.465.168-18.749 2.341-.235 4.178-2.189 4.178-4.594z" fill="#dcbe82"/><path d="m214.245 225.099v67.273c0 7.687 6.231 13.919 13.919 13.919h18.558c6.959 0 9.279 4.64 9.279 4.64s2.319-4.64 9.279-4.64h18.558c7.687 0 13.919-6.231 13.919-13.919v-67.273c0-1.281-1.038-2.319-2.319-2.319h-78.871c-1.284 0-2.322 1.038-2.322 2.319z" fill="#d2aa73"/><path d="m218.88 227.417h34.796v34.796h-34.796z" fill="#ff4b55"/><path d="m253.68 301.651c-19.218 0-34.796-15.578-34.796-34.796h34.796z" fill="#ff4b55"/><path d="m258.32 301.651v-34.796h34.796c-.001 19.216-15.58 34.796-34.796 34.796z" fill="#ffe15a"/><path d="m258.32 227.417h4.971v34.796h-4.971z" fill="#ffe15a"/><path d="m263.29 227.417h4.971v34.796h-4.971z" fill="#ff4b55"/><path d="m268.26 227.417h4.971v34.796h-4.971z" fill="#ffe15a"/><path d="m273.24 227.417h4.971v34.796h-4.971z" fill="#ff4b55"/><path d="m278.2 227.417h4.971v34.796h-4.971z" fill="#ffe15a"/><path d="m288.14 227.417h4.971v34.796h-4.971z" fill="#ffe15a"/><path d="m283.18 227.417h4.971v34.796h-4.971z" fill="#ff4b55"/><path d="m230.48 266.857h3.866v34.796h-3.866z" fill="#ff4b55"/><path d="m234.35 266.857h3.866v34.796h-3.866z" fill="#ffe15a"/><path d="m242.09 266.857h3.866v34.796h-3.866z" fill="#ffe15a"/><path d="m238.21 266.857h3.866v34.796h-3.866z" fill="#ff4b55"/><path d="m249.81 266.857h3.866v34.796h-3.866z" fill="#ffe15a"/><path d="m245.95 266.857h3.866v34.796h-3.866z" fill="#ff4b55"/><path d="m222.75 299.881v-33.026h-3.866v25.517c0 3.097 1.533 5.823 3.866 7.509z" fill="#ffe15a"/><path d="m226.617 301.495v-34.641h-3.866v33.026c1.126.814 2.437 1.374 3.866 1.615z" fill="#ff4b55"/><path d="m226.617 266.855v34.641c.505.085 1.016.156 1.547.156h2.319v-34.796h-3.866z" fill="#ffe15a"/><path d="m224.07 260.24c-.173 0-.348-.049-.503-.151-2.281-1.51-2.414-3.082-2.29-3.884.167-1.084.973-1.983 2.054-2.292 1.028-.289 2.053.014 2.746.819 1.44 1.674 2.927 2.333 4.179 1.87.991-.367 1.582-1.344 1.582-2.074 0-.505.408-.914.914-.914s.914.408.914.914c0 1.598-1.166 3.191-2.774 3.787-1.175.434-3.538.702-6.2-2.391-.286-.33-.622-.32-.86-.254-.324.093-.683.381-.749.812-.097.63.447 1.388 1.492 2.081.422.278.536.846.258 1.267-.176.264-.466.41-.763.41z" fill="#f5f5f5"/><path d="m248.603 260.24c-.296 0-.587-.145-.762-.408-.278-.422-.163-.989.258-1.267 1.045-.693 1.589-1.451 1.492-2.081-.067-.431-.425-.719-.749-.812-.238-.066-.575-.077-.86.254-2.662 3.095-5.026 2.827-6.2 2.391-1.608-.596-2.774-2.19-2.774-3.787 0-.505.408-.914.914-.914.505 0 .914.408.914.914 0 .73.591 1.706 1.582 2.074 1.252.465 2.74-.196 4.179-1.87.693-.809 1.719-1.11 2.746-.819 1.08.309 1.887 1.208 2.054 2.292.124.801-.009 2.374-2.29 3.884-.155.098-.331.149-.504.149z" fill="#f5f5f5"/><path d="m223.567 261.324c-.193 0-.387-.061-.553-.185-.402-.307-.479-.879-.174-1.281l19.864-26.119c.19-.343.262-.818.344-1.365.153-1.026.345-2.303 1.911-3.245 1.021-.612 2.232-.595 3.245.052 1.118.714 1.777 2.044 1.641 3.309-.082.769-.531 2.172-2.612 2.943-.476.177-1-.067-1.174-.538-.175-.473.066-1 .538-1.174.607-.225 1.348-.655 1.43-1.425.063-.584-.269-1.229-.808-1.575-.301-.193-.774-.358-1.319-.025-.829.498-.911 1.044-1.047 1.949-.096.641-.205 1.367-.633 2.106l-19.927 26.213c-.177.236-.45.36-.726.36z" fill="#ffe15a"/><path d="m236.408 232.596-9.138 10.966 3.655 10.966h10.966l3.655-10.966z" fill="#ffe15a"/><path d="m236.408 231.168-10.166 12.199 4.024 12.074h12.282l4.024-12.074zm-8.111 12.588 7.197-8.636v18.493h-3.911zm12.935 9.858h-3.911v-18.493l7.197 8.636z" fill="#f5f5f5"/><path d="m284.561 277.841.138-2.027s1.798-1.29.921-2.488c-.875-1.198-1.889-1.429-4.009-1.152s-5.438.231-6.866.322c-1.429.093-2.166.875-4.424.231l.599-1.383s-1.059.093-1.705.415c-.352.177-1.198-.968-2.027-.783-.826.183-1.658 1.889-2.95 2.765l.691 1.383s.783-.369 1.383.046c.599.415.783.691 1.798.691l.646.277s-.231 1.474.737 2.166c0 0-1.106 1.429-.968 1.658.138.231 1.059 1.982 1.429 2.995l.83-1.567s-1.245-1.106-1.014-1.245c.231-.138 1.059-.322.921-.691s.646.046 1.521.184c0 0 .046 1.383.231 1.567s.461.921.415 1.705c-.046.783-.737 1.014-.737 1.014l1.245.369s.322-.461.553-.415c0 0-.093-3.825.415-4.424 0 0 2.995.599 4.377-.138 0 0 .177.223.522.435-.138.321-.255.641-.203.735.116.209.486.185.578-.046.035-.087.089-.266.143-.451.167.055.35.098.559.119-.02.291-.022.559.045.621.174.161.519.024.535-.225.006-.081.002-.234-.002-.398.238-.02.492-.062.772-.145l-1.567 2.581-.783.322 1.014.507.921-.369s.875-2.212 2.304-2.857c0 0 .968 2.304-.231 3.549l1.059.599.507-1.06s-.184-2.073.507-3.41z" fill="#ff4b55"/><g fill="#4173cd"><path d="m267.208 271.255s-.462-.439-.578-1.017-.255-.833-.764-.994c0 0 .323.37.278.948-.046.578 0 1.365.323 1.619z"/><path d="m271.233 272.886s-.629 2.138-2.477 3.25l-.644-.277s1.973-1.686 2.212-3.134z"/><path d="m268.087 271.764c-.066-.068.81-.323.601-1.017s-.209-1.203.209-1.526c0 0 .046.578.37.948.323.37.509 1.295-.023 1.827 0 0-.533.416-1.157-.232z"/><path d="m268.187 278.07c-.11-.054-.157-.189-.102-.299l.279-.568c.163-.333.055-.747-.266-.932-.353-.203-.797-.063-.973.296l-.29.59c-.054.11-.189.157-.299.102l-.174.354s.256.126.566.278l-.007.013c-.071.143-.011.317.132.387.143.071.317.011.387-.132l.007-.013c.31.152.566.278.566.278z"/><path d="m270.424 281.964.693.139-.579 1.781-.584-.929z"/><path d="m272.12 283.923-.424.748h1.665l.003-.379z"/><path d="m280.322 283.37v.445h-1.89l.914-.914z"/><path d="m283.317 283.692-.933.935h1.964l.029-.335z"/></g><path d="m284.561 292.279.138-2.027s1.798-1.29.921-2.488c-.875-1.198-1.889-1.429-4.009-1.152s-5.438.231-6.866.322c-1.429.093-2.166.875-4.424.231l.599-1.383s-1.059.093-1.705.415c-.352.177-1.198-.968-2.027-.783-.826.183-1.658 1.889-2.95 2.765l.691 1.383s.783-.369 1.383.046c.599.415.783.691 1.798.691l.646.277s-.231 1.474.737 2.166c0 0-1.106 1.429-.968 1.658.138.231 1.059 1.982 1.429 2.995l.83-1.567s-1.245-1.106-1.014-1.245c.231-.138 1.059-.322.921-.691s.646.046 1.521.184c0 0 .046 1.383.231 1.567s.461.921.415 1.705c-.046.783-.737 1.014-.737 1.014l1.245.369s.322-.461.553-.415c0 0-.093-3.825.415-4.424 0 0 2.995.599 4.377-.138 0 0 .177.223.522.435-.138.321-.255.641-.203.735.116.209.486.185.578-.046.035-.087.089-.266.143-.451.167.055.35.098.559.119-.02.291-.022.559.045.621.174.161.519.024.535-.225.006-.081.002-.234-.002-.398.238-.02.492-.062.772-.145l-1.567 2.581-.783.322 1.014.507.921-.369s.875-2.212 2.304-2.857c0 0 .968 2.304-.231 3.549l1.059.599.507-1.06s-.184-2.073.507-3.41z" fill="#ff4b55"/><path d="m267.208 285.694s-.462-.439-.578-1.017-.255-.833-.764-.994c0 0 .323.37.278.948-.046.578 0 1.365.323 1.619z" fill="#4173cd"/><path d="m271.233 287.325s-.629 2.138-2.477 3.25l-.646-.277s1.973-1.686 2.212-3.134z" fill="#4173cd"/><path d="m268.087 286.203c-.066-.068.81-.323.601-1.017s-.209-1.203.209-1.526c0 0 .046.578.37.948.323.37.509 1.295-.023 1.827 0 0-.533.415-1.157-.232z" fill="#4173cd"/><path d="m268.187 292.509c-.11-.054-.157-.189-.102-.299l.279-.568c.163-.333.055-.747-.266-.932-.353-.203-.797-.063-.973.296l-.29.59c-.054.11-.189.157-.299.102l-.174.354s.256.126.566.278l-.007.013c-.071.143-.011.317.132.387.143.071.317.011.387-.132l.007-.013c.31.152.566.278.566.278z" fill="#4173cd"/><path d="m270.424 296.403.693.139-.579 1.781-.584-.929z" fill="#4173cd"/><path d="m272.12 298.362-.424.748h1.665l.003-.38z" fill="#4173cd"/><path d="m280.322 297.809v.445h-1.89l.914-.914z" fill="#4173cd"/><path d="m283.317 298.131-.933.935h1.964l.029-.336z" fill="#4173cd"/></svg>