<svg enable-background="new 0 0 512.001 512.001" viewBox="0 0 512.001 512.001" xmlns="http://www.w3.org/2000/svg"><path d="m503.172 423.724h-494.344c-4.875 0-8.828-3.953-8.828-8.828v-317.792c0-4.875 3.953-8.828 8.828-8.828h494.345c4.875 0 8.828 3.953 8.828 8.828v317.792c-.001 4.876-3.954 8.828-8.829 8.828z" fill="#4173cd"/><path d="m0 317.79h512v17.655h-512z" fill="#ffe15a"/><path d="m0 353.1h512v17.655h-512z" fill="#ffe15a"/><path d="m65.232 175.942-32.848-11.217 32.848-11.216 11.217-32.844 11.216 32.844 32.848 11.216-32.848 11.217-11.216 32.845z" fill="#ff4b55"/><path d="m76.449 126.567 9.714 28.445 28.445 9.714-28.445 9.714-9.714 28.445-9.714-28.445-28.445-9.714 28.445-9.714zm0-11.808-3.612 10.574-9.108 26.673-26.672 9.108-10.574 3.612 10.574 3.61 26.672 9.108 9.108 26.672 3.612 10.574 3.612-10.574 9.108-26.672 26.672-9.108 10.574-3.61-10.574-3.61-26.672-9.108-9.108-26.672z" fill="#f5f5f5"/></svg>