<svg enable-background="new 0 0 512 512" viewBox="0 0 512 512" xmlns="http://www.w3.org/2000/svg"><path d="m170.667 423.721h-161.839c-4.875 0-8.828-3.953-8.828-8.828v-317.792c0-4.875 3.953-8.828 8.828-8.828h161.839z" fill="#41479b"/><path d="m170.67 88.277h170.67v335.45h-170.67z" fill="#ffe15a"/><path d="m503.172 423.721h-161.839v-335.448h161.839c4.875 0 8.828 3.953 8.828 8.828v317.792c0 4.876-3.953 8.828-8.828 8.828z" fill="#41479b"/><path d="m326.62 207.253s-24.564 0-42.987 18.423h12.281s-11.898 21.493-18.039 58.339l-12.665-2.068v-56.454l12.281 4.021-21.492-52.965-21.493 52.965 12.281-4.095v56.527l-12.665 2.068c-6.141-36.845-18.039-58.339-18.039-58.339h12.281c-18.422-18.422-42.986-18.422-42.986-18.422 30.704 36.845 30.704 98.255 30.704 98.255l30.704-5.117v41.963h18.423v-41.963l30.704 5.117c.002.001.002-61.408 30.707-98.255z" fill="#464655"/></svg>