<svg enable-background="new 0 0 512.001 512.001" viewBox="0 0 512.001 512.001" xmlns="http://www.w3.org/2000/svg"><path d="m512 256h-512v-158.896c0-4.875 3.953-8.828 8.828-8.828h494.345c4.875 0 8.828 3.953 8.828 8.828z" fill="#ff4b55"/><path d="m0 256h512v158.896c0 4.875-3.953 8.828-8.828 8.828h-494.344c-4.875 0-8.828-3.953-8.828-8.828z" fill="#73af00"/><path d="m258.685 207.856 11.106 33.3 35.102.273c2.72.021 3.847 3.491 1.66 5.107l-28.238 20.853 10.589 33.469c.82 2.593-2.132 4.738-4.344 3.156l-28.559-20.413-28.558 20.413c-2.212 1.581-5.165-.564-4.344-3.156l10.589-33.469-28.238-20.853c-2.188-1.615-1.06-5.086 1.66-5.107l35.102-.273 11.106-33.3c.857-2.58 4.507-2.58 5.367 0z" fill="#ffe15a"/></svg>