<svg enable-background="new 0 0 512.001 512.001" viewBox="0 0 512.001 512.001" xmlns="http://www.w3.org/2000/svg"><path d="m503.172 88.225h-494.344c-4.875 0-8.828 3.953-8.828 8.828v317.792c0 4.875 3.953 8.828 8.828 8.828h494.345c4.875 0 8.828-3.953 8.828-8.828v-317.792c-.001-4.875-3.954-8.828-8.829-8.828z" fill="#73af00"/><path d="m40.266 88.225 215.733 141.343 215.734-141.343z" fill="#ff4b55"/><path d="m471.733 423.775-215.734-141.343-215.733 141.343z" fill="#ff4b55"/><path d="m512 97.053c0-4.875-3.953-8.828-8.828-8.828h-31.438l-164.038 107.473c-13.9-11.937-31.936-19.196-51.696-19.196s-37.796 7.258-51.696 19.196l-164.038-107.473h-31.438c-4.875 0-8.828 3.953-8.828 8.828v17.554l180.058 117.968c-2.272 7.391-3.507 15.239-3.507 23.374 0 8.136 1.235 15.982 3.507 23.374l-180.058 117.969v17.554c0 4.875 3.953 8.828 8.828 8.828h31.438l164.037-107.472c13.9 11.937 31.936 19.197 51.696 19.197s37.796-7.258 51.696-19.197l164.037 107.472h31.438c4.875 0 8.828-3.953 8.828-8.828v-17.554l-180.057-117.968c2.272-7.391 3.507-15.239 3.507-23.374 0-8.136-1.235-15.982-3.507-23.374l180.058-117.968z" fill="#f5f5f5"/><path d="m250.28 230.545-11.97.31 6.25-10.216-6.25-10.215 11.97.31 5.719-10.525 5.721 10.525 11.97-.31-6.251 10.215 6.251 10.216-11.97-.31-5.721 10.525z" fill="#ff4b55"/><path d="m255.999 202.984 4.943 9.092 10.346-.265-5.402 8.828 5.402 8.828-10.346-.265-4.943 9.092-4.943-9.092-10.346.265 5.402-8.828-5.402-8.828 10.346.265zm0-5.544-2.327 4.279-4.169 7.669-8.726-.224-4.869-.125 2.542 4.156 4.557 7.445-4.557 7.445-2.542 4.156 4.869-.125 8.726-.224 4.169 7.669 2.327 4.279 2.327-4.279 4.169-7.669 8.726.224 4.87.125-2.542-4.156-4.557-7.445 4.557-7.445 2.542-4.156-4.87.125-8.726.224-4.169-7.669z" fill="#73af00"/><path d="m217.406 289.054-11.97.311 6.25-10.216-6.25-10.215 11.97.31 5.72-10.526 5.72 10.526 11.969-.31-6.25 10.215 6.25 10.216-11.969-.311-5.72 10.525z" fill="#ff4b55"/><path d="m223.126 261.494 4.943 9.092 10.346-.265-5.402 8.828 5.402 8.828-10.346-.265-4.943 9.092-4.943-9.092-10.346.265 5.402-8.828-5.402-8.828 10.346.265zm0-5.545-2.327 4.279-4.169 7.669-8.726-.224-4.87-.125 2.542 4.156 4.557 7.445-4.557 7.445-2.542 4.156 4.87-.125 8.726-.224 4.169 7.669 2.327 4.279 2.327-4.279 4.169-7.669 8.726.224 4.87.125-2.542-4.156-4.557-7.445 4.557-7.445 2.542-4.156-4.87.125-8.726.224-4.169-7.669z" fill="#73af00"/><path d="m283.154 289.054-11.97.311 6.25-10.216-6.25-10.215 11.97.31 5.719-10.526 5.721 10.526 11.97-.31-6.25 10.215 6.25 10.216-11.97-.311-5.721 10.525z" fill="#ff4b55"/><path d="m288.873 261.494 4.943 9.092 10.346-.265-5.402 8.828 5.402 8.828-10.346-.265-4.943 9.092-4.943-9.092-10.346.265 5.402-8.828-5.402-8.828 10.346.265zm0-5.545-2.327 4.279-4.169 7.669-8.726-.224-4.87-.125 2.542 4.156 4.557 7.445-4.557 7.445-2.542 4.156 4.87-.125 8.726-.224 4.169 7.669 2.327 4.279 2.327-4.279 4.169-7.669 8.726.224 4.87.125-2.542-4.156-4.557-7.445 4.557-7.445 2.542-4.156-4.87.125-8.726.224-4.169-7.669z" fill="#73af00"/></svg>