<svg enable-background="new 0 0 512.001 512.001" viewBox="0 0 512.001 512.001" xmlns="http://www.w3.org/2000/svg"><path d="m503.172 423.725h-494.344c-4.875 0-8.828-3.953-8.828-8.828v-317.793c0-4.875 3.953-8.828 8.828-8.828h494.345c4.875 0 8.828 3.953 8.828 8.828v317.793c-.001 4.876-3.954 8.828-8.829 8.828z" fill="#ff4b55"/><path d="m353.103 220.691h-61.793v-61.793c0-4.875-3.953-8.828-8.828-8.828h-52.966c-4.875 0-8.828 3.953-8.828 8.828v61.793h-61.793c-4.875 0-8.828 3.953-8.828 8.828v52.966c0 4.875 3.953 8.828 8.828 8.828h61.793v61.793c0 4.875 3.953 8.828 8.828 8.828h52.966c4.875 0 8.828-3.953 8.828-8.828v-61.795h61.793c4.875 0 8.828-3.953 8.828-8.828v-52.966c0-4.874-3.953-8.826-8.828-8.826z" fill="#f5f5f5"/></svg>