<svg enable-background="new 0 0 512.001 512.001" viewBox="0 0 512.001 512.001" xmlns="http://www.w3.org/2000/svg"><path d="m512 200.093h-512v-102.989c0-4.875 3.953-8.828 8.828-8.828h494.345c4.875 0 8.828 3.953 8.828 8.828z" fill="#4173cd"/><path d="m503.172 423.725h-494.344c-4.875 0-8.828-3.953-8.828-8.828v-102.988h512v102.988c0 4.876-3.953 8.828-8.828 8.828z" fill="#4173cd"/><path d="m0 200.091h512v111.81h-512z" fill="#f5f5f5"/><g fill="#4173cd"><path d="m257.277 241.579 3.159 9.473 9.985.077c1.293.01 1.828 1.66.789 2.428l-8.033 5.932 3.012 9.521c.389 1.233-1.013 2.252-2.066 1.501l-8.123-5.807-8.124 5.806c-1.052.751-2.455-.268-2.066-1.501l3.012-9.521-8.033-5.932c-1.039-.768-.504-2.418.789-2.428l9.985-.077 3.159-9.473c.411-1.225 2.145-1.225 2.555.001z"/><path d="m167.104 267.002 3.159 9.473 9.985.077c1.293.01 1.828 1.66.789 2.428l-8.033 5.932 3.012 9.521c.39 1.233-1.013 2.252-2.066 1.501l-8.124-5.806-8.124 5.806c-1.052.751-2.455-.268-2.066-1.501l3.012-9.521-8.033-5.932c-1.039-.768-.504-2.418.789-2.428l9.985-.077 3.159-9.473c.412-1.226 2.147-1.226 2.556 0z"/><path d="m167.104 216.155 3.159 9.473 9.985.077c1.293.01 1.828 1.66.789 2.428l-8.033 5.932 3.012 9.521c.39 1.233-1.013 2.252-2.066 1.501l-8.124-5.806-8.124 5.806c-1.052.751-2.455-.268-2.066-1.501l3.012-9.521-8.033-5.932c-1.039-.768-.504-2.418.789-2.428l9.985-.077 3.159-9.473c.412-1.225 2.147-1.225 2.556 0z"/><path d="m347.449 267.002 3.159 9.473 9.985.077c1.293.01 1.828 1.66.789 2.428l-8.033 5.932 3.012 9.521c.39 1.233-1.013 2.252-2.066 1.501l-8.124-5.806-8.124 5.806c-1.052.751-2.455-.268-2.066-1.501l3.012-9.521-8.033-5.932c-1.041-.768-.504-2.418.789-2.428l9.985-.077 3.159-9.473c.412-1.226 2.147-1.226 2.556 0z"/><path d="m347.449 216.155 3.159 9.473 9.985.077c1.293.01 1.828 1.66.789 2.428l-8.033 5.932 3.012 9.521c.39 1.233-1.013 2.252-2.066 1.501l-8.124-5.806-8.124 5.806c-1.052.751-2.455-.268-2.066-1.501l3.012-9.521-8.033-5.932c-1.041-.768-.504-2.418.789-2.428l9.985-.077 3.159-9.473c.412-1.225 2.147-1.225 2.556 0z"/></g></svg>