<svg enable-background="new 0 0 512.001 512.001" viewBox="0 0 512.001 512.001" xmlns="http://www.w3.org/2000/svg"><path d="m503.172 423.724h-494.344c-4.875 0-8.828-3.953-8.828-8.828v-317.792c0-4.875 3.953-8.828 8.828-8.828h494.345c4.875 0 8.828 3.953 8.828 8.828v317.792c-.001 4.876-3.954 8.828-8.829 8.828z" fill="#f5f5f5"/><g fill="#41479b"><path d="m512 353.103c-25.629 0-25.629-8.828-51.256-8.828-25.629 0-25.629 8.828-51.256 8.828-25.611 0-25.611-8.828-51.221-8.828-25.589 0-25.589 8.828-51.177 8.828-25.602 0-25.602-8.828-51.204-8.828-25.596 0-25.596 8.828-51.191 8.828s-25.596-8.828-51.19-8.828-25.596 8.828-51.191 8.828c-25.585 0-25.585-8.828-51.168-8.828-25.571 0-25.571 8.828-51.143 8.828v-26.483c25.571 0 25.571-8.828 51.143-8.828 25.584 0 25.584 8.828 51.168 8.828 25.596 0 25.596-8.828 51.191-8.828s25.596 8.828 51.19 8.828c25.596 0 25.596-8.828 51.191-8.828 25.602 0 25.602 8.828 51.204 8.828 25.589 0 25.589-8.828 51.177-8.828 25.611 0 25.611 8.828 51.221 8.828 25.629 0 25.629-8.828 51.256-8.828 25.629 0 25.629 8.828 51.256 8.828z"/><path d="m512 247.172c-25.629 0-25.629-8.828-51.256-8.828-25.629 0-25.629 8.828-51.256 8.828-25.611 0-25.611-8.828-51.221-8.828-25.589 0-25.589 8.828-51.177 8.828-25.602 0-25.602-8.828-51.204-8.828-25.596 0-25.596 8.828-51.191 8.828s-25.596-8.828-51.19-8.828-25.596 8.828-51.191 8.828c-25.585 0-25.585-8.828-51.168-8.828-25.571 0-25.571 8.828-51.143 8.828v-26.482c25.571 0 25.571-8.828 51.143-8.828 25.584 0 25.584 8.828 51.168 8.828 25.596 0 25.596-8.828 51.191-8.828s25.596 8.828 51.19 8.828c25.596 0 25.596-8.828 51.191-8.828 25.602 0 25.602 8.828 51.204 8.828 25.589 0 25.589-8.828 51.177-8.828 25.611 0 25.611 8.828 51.221 8.828 25.629 0 25.629-8.828 51.256-8.828 25.629 0 25.629 8.828 51.256 8.828z"/><path d="m512 194.207c-25.629 0-25.629-8.828-51.256-8.828-25.629 0-25.629 8.828-51.256 8.828-25.611 0-25.611-8.828-51.221-8.828-25.589 0-25.589 8.828-51.177 8.828-25.602 0-25.602-8.828-51.204-8.828-25.596 0-25.596 8.828-51.191 8.828s-25.596-8.828-51.19-8.828-25.596 8.828-51.191 8.828c-25.585 0-25.585-8.828-51.168-8.828-25.571 0-25.571 8.828-51.143 8.828v-26.483c25.571 0 25.571-8.828 51.143-8.828 25.584 0 25.584 8.828 51.168 8.828 25.596 0 25.596-8.828 51.191-8.828s25.596 8.828 51.19 8.828c25.596 0 25.596-8.828 51.191-8.828 25.602 0 25.602 8.828 51.204 8.828 25.589 0 25.589-8.828 51.177-8.828 25.611 0 25.611 8.828 51.221 8.828 25.629 0 25.629-8.828 51.256-8.828 25.629 0 25.629 8.828 51.256 8.828z"/><path d="m512 141.242c-25.629 0-25.629-8.828-51.256-8.828-25.629 0-25.629 8.828-51.256 8.828-25.611 0-25.611-8.828-51.221-8.828-25.589 0-25.589 8.828-51.177 8.828-25.602 0-25.602-8.828-51.204-8.828-25.596 0-25.596 8.828-51.191 8.828s-25.596-8.828-51.19-8.828-25.596 8.828-51.191 8.828c-25.585 0-25.585-8.828-51.168-8.828-25.571 0-25.571 8.828-51.143 8.828v-26.483c25.571 0 25.571-8.828 51.143-8.828 25.584 0 25.584 8.828 51.168 8.828 25.596 0 25.596-8.828 51.191-8.828s25.596 8.828 51.19 8.828c25.596 0 25.596-8.828 51.191-8.828 25.602 0 25.602 8.828 51.204 8.828 25.589 0 25.589-8.828 51.177-8.828 25.611 0 25.611 8.828 51.221 8.828 25.629 0 25.629-8.828 51.256-8.828 25.629 0 25.629 8.828 51.256 8.828z"/><path d="m512 300.138c-25.629 0-25.629-8.828-51.256-8.828-25.629 0-25.629 8.828-51.256 8.828-25.611 0-25.611-8.828-51.221-8.828-25.589 0-25.589 8.828-51.177 8.828-25.602 0-25.602-8.828-51.204-8.828-25.596 0-25.596 8.828-51.191 8.828s-25.596-8.828-51.19-8.828-25.596 8.828-51.191 8.828c-25.585 0-25.585-8.828-51.168-8.828-25.571 0-25.571 8.828-51.143 8.828v-26.483c25.571 0 25.571-8.828 51.143-8.828 25.584 0 25.584 8.828 51.168 8.828 25.596 0 25.596-8.828 51.191-8.828s25.596 8.828 51.19 8.828c25.596 0 25.596-8.828 51.191-8.828 25.602 0 25.602 8.828 51.204 8.828 25.589 0 25.589-8.828 51.177-8.828 25.611 0 25.611 8.828 51.221 8.828 25.629 0 25.629-8.828 51.256-8.828 25.629 0 25.629 8.828 51.256 8.828z"/><path d="m512 406.069c-25.629 0-25.629-8.828-51.256-8.828-25.629 0-25.629 8.828-51.256 8.828-25.611 0-25.611-8.828-51.221-8.828-25.589 0-25.589 8.828-51.177 8.828-25.602 0-25.602-8.828-51.204-8.828-25.596 0-25.596 8.828-51.191 8.828s-25.596-8.828-51.19-8.828-25.596 8.828-51.191 8.828c-25.585 0-25.585-8.828-51.168-8.828-25.571 0-25.571 8.828-51.143 8.828v-26.483c25.571 0 25.571-8.828 51.143-8.828 25.584 0 25.584 8.828 51.168 8.828 25.596 0 25.596-8.828 51.191-8.828s25.596 8.828 51.19 8.828c25.596 0 25.596-8.828 51.191-8.828 25.602 0 25.602 8.828 51.204 8.828 25.589 0 25.589-8.828 51.177-8.828 25.611 0 25.611 8.828 51.221 8.828 25.629 0 25.629-8.828 51.256-8.828 25.629 0 25.629 8.828 51.256 8.828z"/><path d="m247.172 256h-238.344c-4.875 0-8.828-3.953-8.828-8.828v-150.068c0-4.875 3.953-8.828 8.828-8.828h238.344c4.875 0 8.828 3.953 8.828 8.828v150.069c-.001 4.876-3.952 8.827-8.828 8.827z"/></g><path d="m247.172 88.276h-15.333l-81.77 53.573v-53.573h-44.138v53.573l-81.77-53.573h-15.333c-4.875 0-8.828 3.953-8.828 8.828v7.002l70.155 45.963h-70.155v44.138h70.155l-70.155 45.964v7.001c0 4.875 3.953 8.828 8.828 8.828h15.333l81.77-53.573v53.573h44.138v-53.573l81.769 53.573h15.333c4.875 0 8.828-3.953 8.828-8.828v-7.002l-70.154-45.963h70.154v-44.138h-70.155l70.155-45.963v-7.002c0-4.875-3.951-8.828-8.827-8.828z" fill="#f5f5f5"/><path d="m255.999 158.897h-114.758v-70.621h-26.483v70.621h-114.758v26.482h114.758v70.621h26.483v-70.621h114.758z" fill="#ff4b55"/><path d="m97.103 150.069-92.896-60.301c-2.472 1.565-4.207 4.193-4.207 7.336v.458l80.889 52.507z" fill="#ff4b55"/><path d="m166.283 150.069 88.374-57.366c-1.536-2.599-4.246-4.427-7.485-4.427h-1.909l-95.194 61.793z" fill="#ff4b55"/><path d="m89.474 194.207-88.205 57.256c1.521 2.662 4.273 4.537 7.559 4.537h1.665l95.195-61.793z" fill="#ff4b55"/><path d="m255.859 247.867-82.666-53.659h-16.213l93.873 60.934c2.813-1.305 4.741-4.04 5.006-7.275z" fill="#ff4b55"/><path d="m388.413 387.387c-3.375 0-6.111-2.737-6.111-6.111v-195.552h12.222v195.553c.001 3.375-2.736 6.11-6.111 6.11z" fill="#965032"/><path d="m473.968 210.167-12.222-6.111-45-5.624 27.842-35.797 4.321-12.964-12.963 4.322-35.797 27.841-5.624-44.998-6.112-12.223-6.111 12.223-5.624 44.998-35.797-27.841-12.963-4.322 4.321 12.964 27.842 35.797-45 5.624-12.222 6.111 12.222 6.111 45 5.626-27.842 35.795-4.321 12.965 12.963-4.321 38.89-30.248 8.642-13.705 8.642 13.705 38.891 30.248 12.963 4.321-4.321-12.965-27.842-35.795 45-5.626z" fill="#73af00"/><path d="m415.018 281.34c-5.492-5.482-17.252-3.467-23.549-1.877v-5.129c0-1.687-1.368-3.055-3.055-3.055s-3.055 1.368-3.055 3.055v5.128c-6.296-1.594-18.055-3.609-23.549 1.878-5.238 5.235-1.443 17.858 2.161 26.634v8.126c0 2.247 1.821 4.066 4.066 4.066h40.756c2.246 0 4.066-1.821 4.066-4.066v-8.126c3.602-8.776 7.397-21.4 2.159-26.634zm-4.321 4.321c2.333 2.335-.28 12.567-4.49 22.284h-14.739v-22.17c6.861-1.943 16.259-3.091 19.229-.114zm-44.567 0c2.968-2.976 12.366-1.828 19.229.114v22.169h-14.739c-4.21-9.716-6.823-19.948-4.49-22.283z" fill="#ffe15a"/></svg>