<svg enable-background="new 0 0 512.001 512.001" viewBox="0 0 512.001 512.001" xmlns="http://www.w3.org/2000/svg"><path d="m503.172 423.724h-494.344c-4.875 0-8.828-3.953-8.828-8.828v-317.792c0-4.875 3.953-8.828 8.828-8.828h494.345c4.875 0 8.828 3.953 8.828 8.828v317.792c-.001 4.876-3.954 8.828-8.829 8.828z" fill="#41479b"/><path d="m0 167.72h512v176.55h-512z" fill="#ff4b55"/><path d="m372.816 322.934v-12.518h-4.172v-8.344h-4.173v-8.343h-4.172v-8.344h-12.516v-25.032h-.001l4.173-4.172v-12.516h-4.172v-8.344h-4.172v-12.516h-4.171v-8.344h-4.172v-8.344h-4.172v-4.172h-8.345v4.172h-4.172v8.344h-4.172v8.344h-4.171v12.516h-4.172v8.344h-25.033v-12.516h-4.171v-12.516h-4.172v-12.516h-4.172v-8.344h-4.172v-8.344h-4.172v-4.172h-2.086v-4.172h-4.172v4.172h-2.087v4.172h-4.171v8.344h-4.172v8.344h-4.172v12.516h-4.172v12.516h-4.172v12.516h-25.032v-8.344h-4.172v-12.516h-4.172v-8.344h-4.172v-8.344h-4.172v-4.172h-8.344v4.172h-4.172v8.344h-4.172v8.344h-4.172v12.516h-4.172v8.344h-4.172v12.516l4.17 4.172h.002v25.032h-12.515v8.344h-4.172v8.343h-4.173v8.344h-4.172v12.518h-4.172v12.514h241.975v-12.514z" fill="#f5f5f5"/></svg>