<svg enable-background="new 0 0 512.001 512.001" viewBox="0 0 512.001 512.001" xmlns="http://www.w3.org/2000/svg"><path d="m512 158.898h-512v-61.794c0-4.875 3.953-8.828 8.828-8.828h494.345c4.875 0 8.828 3.953 8.828 8.828z" fill="#ff4b55"/><path d="m503.172 423.725h-494.344c-4.875 0-8.828-3.953-8.828-8.828v-61.793h512v61.793c0 4.876-3.953 8.828-8.828 8.828z" fill="#ff4b55"/><path d="m0 158.901h512v194.21h-512z" fill="#f5f5f5"/><path d="m274.862 315.38 81.581-16.317c5.888-1.177 8.516-8.107 4.89-12.894-1.273-1.681-3.149-2.802-5.233-3.127l-86.911-13.551c-2.402-.375-4.104-2.631-3.7-5.124.391-2.414 2.838-3.953 5.262-3.633l60.259 7.929c4.898.644 7.902-5.208 4.523-8.812l-4.838-5.16c-1.811-1.932-4.185-3.243-6.785-3.746l-50.339-9.749 42.921 3.092c3.29.237 5.196-3.652 2.993-6.108l-2.201-2.453c-1.331-1.482-3.098-2.502-5.048-2.909l-42.613-8.905 30.284-.876c2.678-.077 4.04-3.253 2.25-5.246l-1.358-1.513c-1.064-1.185-2.44-2.047-3.97-2.486l-27.01-7.755h21.226c2.1 0 3.512-2.152 2.677-4.078l-.716-1.652c-.859-1.982-2.515-3.509-4.559-4.204l-19.629-6.678 9.654-.031c2.869-.009 4.793-2.951 3.652-5.582-.919-2.121-2.541-3.86-4.593-4.924l-21.531-11.163-21.534 11.165c-2.051 1.064-3.674 2.803-4.593 4.924-1.141 2.633.783 5.574 3.652 5.582l9.654.032-19.629 6.678c-2.045.695-3.701 2.222-4.559 4.204l-.716 1.652c-.835 1.927.577 4.078 2.677 4.078h21.226l-27.01 7.755c-1.53.439-2.906 1.301-3.97 2.486l-1.358 1.513c-1.789 1.994-.427 5.169 2.25 5.246l30.284.876-42.613 8.905c-1.95.407-3.719 1.427-5.048 2.909l-2.201 2.453c-2.204 2.455-.298 6.345 2.993 6.108l42.921-3.092-50.339 9.749c-2.6.503-4.974 1.814-6.785 3.746l-4.838 5.16c-3.379 3.604-.374 9.457 4.523 8.812l60.259-7.929c2.424-.319 4.872 1.219 5.262 3.633.404 2.495-1.298 4.75-3.7 5.124l-86.911 13.551c-2.083.324-3.959 1.446-5.233 3.126-3.626 4.786-.998 11.716 4.89 12.894l81.581 16.317v10.182c0 5.558-2.208 10.889-6.138 14.819l-12.721 12.723h37.724 37.725l-12.724-12.724c-3.93-3.93-6.138-9.261-6.138-14.819v-10.183z" fill="#73af00"/></svg>