<svg enable-background="new 0 0 512.001 512.001" viewBox="0 0 512.001 512.001" xmlns="http://www.w3.org/2000/svg"><path d="m512 118.772h-512v-21.668c0-4.875 3.953-8.828 8.828-8.828h494.345c4.875 0 8.828 3.953 8.828 8.828z" fill="#ff4b55"/><path d="m0 118.781h512v30.495h-512z" fill="#f5f5f5"/><path d="m0 149.261h512v30.495h-512z" fill="#ff4b55"/><path d="m0 179.761h512v30.495h-512z" fill="#f5f5f5"/><path d="m512 240.754h-503.172c-4.875 0-8.828-3.953-8.828-8.828v-21.667h512z" fill="#ff4b55"/><path d="m512 271.248h-512v-41.73h8.826l.002 11.236h503.172z" fill="#f5f5f5"/><path d="m0 271.251h512v30.495h-512z" fill="#ff4b55"/><path d="m0 301.741h512v30.495h-512z" fill="#f5f5f5"/><path d="m0 332.241h512v30.495h-512z" fill="#ff4b55"/><path d="m0 362.741h512v30.495h-512z" fill="#f5f5f5"/><path d="m503.172 423.725h-494.344c-4.875 0-8.828-3.953-8.828-8.828v-21.667h512v21.667c0 4.876-3.953 8.828-8.828 8.828z" fill="#ff4b55"/><path d="m141.241 240.754h-132.413c-4.875 0-8.828-3.953-8.828-8.828v-134.822c0-4.875 3.953-8.828 8.828-8.828h132.414c4.875 0 8.828 3.953 8.828 8.828v134.822c-.001 4.875-3.954 8.828-8.829 8.828z" fill="#41479b"/><path d="m72.512 127.738-8.428 25.27-26.638.206c-2.554.02-3.614 3.279-1.559 4.797l21.429 15.825-8.035 25.398c-.77 2.435 2.003 4.45 4.081 2.965l21.674-15.49 21.672 15.49c2.078 1.485 4.851-.53 4.081-2.965l-8.035-25.398 21.429-15.825c2.055-1.517.995-4.778-1.559-4.797l-26.638-.206-8.428-25.27c-.81-2.424-4.237-2.424-5.046 0z" fill="#f5f5f5"/></svg>