<svg enable-background="new 0 0 512.001 512.001" viewBox="0 0 512.001 512.001" xmlns="http://www.w3.org/2000/svg"><path d="m8.828 88.276h494.345c4.875 0 8.828 3.953 8.828 8.828v158.896h-512.001v-158.897c0-4.875 3.953-8.827 8.828-8.827z" fill="#ff4b55"/><path d="m503.172 423.724h-494.344c-4.875 0-8.828-3.953-8.828-8.828v-158.896h512v158.897c0 4.875-3.953 8.827-8.828 8.827z" fill="#41479b"/><path d="m3.256 421.59 244.341-160.086c3.966-2.599 3.966-8.412 0-11.009l-244.341-160.085c-1.945 1.619-3.256 3.965-3.256 6.693v317.793c0 2.729 1.311 5.075 3.256 6.694z" fill="#f5f5f5"/><circle cx="90.5" cy="221.93" fill="#ffe15a" r="27.719"/><path d="m124.39 247.606c.11 3.363.476 6.833.829 10.187 1.385 13.163 2.582 24.533-10.06 28.943-2.988 1.042-7.06 1.626-10.996 2.19-5.651.81-10.711 1.534-13.654 3.585-2.943-2.05-8.002-2.775-13.654-3.585-3.936-.564-8.009-1.149-10.996-2.19-12.642-4.41-11.445-15.78-10.06-28.943.353-3.354.718-6.824.829-10.187.393-11.918-2.12-23.596-3.885-30.197 2.941 1.207 7.018 2.296 12.017 2.208 2.154-.043 4.573-.35 7.133-.674 5.844-.745 12.467-1.583 17.768.512l.85.378.85-.378c5.3-2.095 11.924-1.257 17.768-.512 2.56.324 4.979.631 7.133.674 4.999.088 9.077-1.002 12.017-2.208-1.77 6.6-4.282 18.279-3.889 30.197z" fill="#8cd7ff"/><path d="m129.007 247.453c-.557-16.894 5.207-33.843 5.266-34.012l-3.633-2.551c-.047.039-5.511 4.277-14.291 4.108-1.908-.036-4.207-.329-6.642-.639-6.113-.774-13.009-1.651-19.199.486-6.19-2.136-13.085-1.259-19.199-.486-2.434.309-4.734.602-6.642.639-8.78.169-14.243-4.07-14.291-4.108l-3.633 2.551c.057.169 5.823 17.118 5.266 34.012-.105 3.199-.461 6.583-.807 9.856-1.389 13.206-2.964 28.175 13.133 33.791 3.411 1.188 7.721 1.714 11.862 2.4 12.433 2.06 14.31 5.236 14.31 5.236s1.877-3.177 14.31-5.236c4.141-.686 8.451-1.212 11.862-2.4 16.098-5.615 14.524-20.585 13.133-33.791-.343-3.274-.7-6.657-.805-9.856zm-4.617.153c.11 3.363.476 6.833.829 10.187 1.385 13.163 2.582 24.533-10.06 28.943-2.988 1.042-7.06 1.626-10.996 2.19-5.651.81-10.711 1.534-13.654 3.585-2.943-2.05-8.002-2.775-13.654-3.585-3.936-.564-8.009-1.149-10.996-2.19-12.642-4.41-11.445-15.78-10.06-28.943.353-3.354.718-6.824.829-10.187.393-11.918-2.12-23.596-3.885-30.197 2.941 1.207 7.018 2.296 12.017 2.208 2.154-.043 4.573-.35 7.133-.674 5.844-.745 12.467-1.583 17.768.512l.85.378.85-.378c5.3-2.095 11.924-1.257 17.768-.512 2.56.324 4.979.631 7.133.674 4.999.088 9.077-1.002 12.017-2.208-1.77 6.6-4.282 18.279-3.889 30.197z" fill="#ff4b55"/><path d="m114.33 276.004v-10.182h1.745v-3.004h-4.268v-10.457h4.268l-19.518-13.827v-5.201h2.715l-8.764-6.208-8.762 6.208h2.713v5.201l-19.518 13.827h4.269v10.457h-4.269v3.004h1.746v10.182h-2.55v4.395h52.744v-4.395z" fill="#f5f5f5"/><g fill="#41aa5a"><path d="m65.193 234.33c-.622 1.474-.516 3.036.145 4.185 1.286-.328 2.478-1.341 3.101-2.814.622-1.474.516-3.036-.145-4.185-1.285.328-2.478 1.341-3.101 2.814z"/><path d="m68.216 234.794c.407 1.547 1.446 2.719 2.671 3.225.818-1.044 1.143-2.575.736-4.122s-1.446-2.719-2.671-3.225c-.817 1.043-1.143 2.575-.736 4.122z"/><path d="m72.914 232.222c1.5.557 3.055.384 4.175-.328-.383-1.27-1.448-2.418-2.947-2.975-1.5-.557-3.055-.384-4.175.328.383 1.269 1.447 2.416 2.947 2.975z"/><path d="m74.321 229.582c1.464-.644 2.461-1.852 2.769-3.142-1.16-.644-2.722-.727-4.186-.084-1.464.644-2.46 1.852-2.769 3.142 1.158.645 2.721.728 4.186.084z"/><path d="m64.479 230.916c1.305-.926 2.038-2.308 2.081-3.635-1.265-.398-2.813-.165-4.118.76s-2.038 2.308-2.081 3.635c1.265.399 2.814.166 4.118-.76z"/><path d="m63.389 228.983c2.008 1.15 4.159 1.462 5.759 1-.412-1.614-1.769-3.311-3.777-4.461s-4.159-1.462-5.759-1c.412 1.614 1.77 3.311 3.777 4.461z"/></g><path d="m71.86 231.341c0-.78-.621-1.408-1.395-1.437-.029-.774-.655-1.395-1.437-1.395s-1.408.621-1.437 1.395c-.774.029-1.395.655-1.395 1.437 0 .78.621 1.407 1.395 1.437.029.774.655 1.395 1.437 1.395s1.408-.621 1.437-1.395c.774-.03 1.395-.657 1.395-1.437z" fill="#ffe15a"/><circle cx="69.03" cy="231.34" fill="#f5f5f5" r=".85"/><path d="m67.34 229.909c0-.642-.511-1.158-1.146-1.181-.024-.636-.54-1.146-1.181-1.146-.642 0-1.158.511-1.181 1.146-.636.024-1.146.54-1.146 1.181 0 .642.511 1.158 1.146 1.181.024.636.54 1.146 1.181 1.146.642 0 1.158-.511 1.181-1.146.635-.024 1.146-.539 1.146-1.181z" fill="#ffe15a"/><circle cx="65.01" cy="229.9" fill="#f5f5f5" r=".698"/><path d="m71.676 227.906c0-.462-.369-.834-.826-.851-.018-.458-.388-.826-.851-.826s-.834.369-.851.826c-.458.018-.826.388-.826.851 0 .462.369.834.826.851.018.458.388.826.851.826s.834-.369.851-.826c.458-.017.826-.388.826-.851z" fill="#ffe15a"/><circle cx="70" cy="227.91" fill="#f5f5f5" r=".503"/><path d="m68.494 226.46c0-.462-.369-.834-.826-.851-.018-.458-.388-.826-.851-.826-.462 0-.834.369-.851.826-.458.018-.826.388-.826.851s.369.834.826.851c.018.458.388.826.851.826.462 0 .834-.369.851-.826.458-.017.826-.389.826-.851z" fill="#ffe15a"/><circle cx="66.814" cy="226.46" fill="#f5f5f5" r=".503"/><path d="m105.406 239.156h16.021c-1.026-2.349-3.039-4.167-5.535-4.907.182-1.166.294-2.461.294-3.85 0-4.839-1.239-8.761-2.769-8.761s-2.769 3.923-2.769 8.761c0 1.388.111 2.684.294 3.85-2.497.74-4.511 2.558-5.536 4.907z" fill="#f5f5f5"/><path d="m90.508 317.793c-33.754 0-61.216-27.46-61.216-61.216h11.55c0 27.386 22.28 49.665 49.665 49.665s49.665-22.279 49.665-49.665h11.552c0 33.756-27.46 61.216-61.216 61.216z" fill="#ffe15a"/><path d="m113.196 201.879h-9.983c1.002 0 1.815-.812 1.815-1.815s-.812-1.815-1.815-1.815h-12.705c-1.002 0-1.815.812-1.815 1.815s.812 1.815 1.815 1.815h-22.687c-1.504 0-2.722 1.219-2.722 2.722s1.219 2.722 2.722 2.722h8.167c-1.002 0-1.814.812-1.814 1.815 0 1.002.812 1.815 1.815 1.815h16.335c1.002 0 1.815-.812 1.815-1.815 0-1.002-.812-1.815-1.814-1.815h20.872c1.504 0 2.722-1.219 2.722-2.722s-1.219-2.722-2.723-2.722z" fill="#c87878"/></svg>