<svg enable-background="new 0 0 512.001 512.001" viewBox="0 0 512.001 512.001" xmlns="http://www.w3.org/2000/svg"><path d="m503.172 423.724h-494.344c-4.875 0-8.828-3.953-8.828-8.828v-317.792c0-4.875 3.953-8.828 8.828-8.828h494.345c4.875 0 8.828 3.953 8.828 8.828v317.793c-.001 4.876-3.954 8.827-8.829 8.827z" fill="#ff4b55"/><g fill="#ffe15a"><path d="m225.728 224.016c-.006.004-.011.009-.017.013l-128.608-135.752h-88.275c-2.146 0-4.041.86-5.571 2.134l215.864 141.428c1.886-2.874 4.121-5.469 6.607-7.823z"/><path d="m212.318 260.523c-.156-1.508-.456-2.973-.456-4.522s.3-3.014.456-4.522v.002l-212.318-21.963v52.966l212.318-21.964z"/><path d="m249.139 212.553c2.251-.354 4.511-.691 6.861-.691s4.61.338 6.861.691h-.001l19.623-124.277h-52.966z"/><path d="m292.879 231.839 215.865-141.428c-1.531-1.274-3.425-2.134-5.571-2.134h-88.276l-128.608 135.753c-.006-.004-.011-.009-.017-.013 2.486 2.353 4.721 4.948 6.607 7.822z"/><path d="m286.272 287.985c.005-.004.011-.009.017-.013l128.608 135.753h88.276c2.146 0 4.041-.86 5.571-2.134l-215.865-141.429c-1.886 2.874-4.121 5.47-6.607 7.823z"/><path d="m299.682 251.482v-.002c.156 1.507.456 2.973.456 4.522s-.3 3.014-.456 4.522v-.002l212.318 21.962v-52.966z"/><path d="m262.861 299.448c-2.251.353-4.511.691-6.861.691s-4.61-.338-6.861-.691h.001l-19.623 124.277h52.966z"/><path d="m219.121 280.162-215.865 141.429c1.53 1.274 3.425 2.134 5.571 2.134h88.276l128.608-135.753c.006.004.011.009.017.013-2.486-2.353-4.721-4.949-6.607-7.823z"/><circle cx="256" cy="256" r="35.31"/></g></svg>