<svg enable-background="new 0 0 512.001 512.001" viewBox="0 0 512.001 512.001" xmlns="http://www.w3.org/2000/svg"><path d="m503.172 423.724h-494.344c-4.875 0-8.828-3.953-8.828-8.828v-317.792c0-4.875 3.953-8.828 8.828-8.828h494.345c4.875 0 8.828 3.953 8.828 8.828v317.792c-.001 4.876-3.954 8.828-8.829 8.828z" fill="#41479b"/><path d="m0 238.34h512v35.31h-512z" fill="#ffe15a"/><path d="m119.172 308.965 5.141 20.54 14.721-15.218-5.817 20.358 20.357-5.818-15.216 14.723 20.538 5.139-20.538 5.141 15.216 14.721-20.357-5.817 5.817 20.358-14.721-15.217-5.141 20.539-5.141-20.539-14.721 15.217 5.818-20.358-20.358 5.817 15.217-14.721-20.539-5.141 20.539-5.139-15.217-14.723 20.358 5.818-5.818-20.358 14.721 15.218z" fill="#f5f5f5"/></svg>