<svg enable-background="new 0 0 512.001 512.001" viewBox="0 0 512.001 512.001" xmlns="http://www.w3.org/2000/svg"><path d="m512 200.093h-512v-102.989c0-4.875 3.953-8.828 8.828-8.828h494.345c4.875 0 8.828 3.953 8.828 8.828z" fill="#f5f5f5"/><path d="m503.172 423.725h-494.344c-4.875 0-8.828-3.953-8.828-8.828v-102.988h512v102.988c0 4.876-3.953 8.828-8.828 8.828z" fill="#73af00"/><path d="m0 200.091h512v111.81h-512z" fill="#ff4b55"/><path d="m132.414 423.725h-123.586c-4.875 0-8.828-3.953-8.828-8.828v-317.793c0-4.875 3.953-8.828 8.828-8.828h123.586z" fill="#ff4b55"/><g fill="#f5f5f5"><path d="m36.056 161.444c-.494.056-.971.116-1.436.178v6.287c.468.119.945.237 1.436.353z"/><path d="m57.803 173.427c-1.311-.105-3.325-.307-5.729-.6l-15.079 13.411c1.953.298 4.294.694 5.271 1.005 3.875-3.39 9.069-8.009 15.537-13.816z"/><path d="m80.491 152.097v-.66-.631h-26.752v.631.66.632h26.752z"/><path d="m60.685 113.837c0 1.884 2.839 3.475 6.2 3.475s6.2-1.591 6.2-3.475-2.839-3.475-6.2-3.475-6.2 1.592-6.2 3.475z"/><path d="m54.887 160.594c-6.039-.03-12.066.192-16.993.658v7.422c5.789 1.242 12.533 2.194 16.993 2.668 0-.001 0-10.748 0-10.748z"/><path d="m23.776 197.221c2.387-.051 7.63-.994 11.18-3.767 1.1-.86 2.979-2.442 5.62-4.736-1.791-.367-4.796-.813-6.398-1.033z"/><path d="m58.332 148.969v-3.374c-.452-.674-.919-1.369-1.396-2.076l-4.107 2.987c.818 1.405 1.342 2.298 1.439 2.462z"/><path d="m26.728 164.204c-.013.055-.045.183.161.448.762.977 2.967 1.91 5.895 2.759v-5.516c-3.515.583-5.817 1.353-6.056 2.309z"/><path d="m73.717 161.57v-7.004h-13.548v17.108h3.445c5.57 0 10.103-4.534 10.103-10.104z"/><path d="m51.942 136.128c-7.254-10.692-15.001-21.93-16.892-24.157.271.995.925 2.865 2.453 6.366 1.971 4.518 6.755 13.177 10.716 20.149z"/><path d="m49.129 140.085c1.032 1.806 1.977 3.448 2.774 4.824l4.007-2.914c-.953-1.415-1.934-2.866-2.935-4.344z"/><path d="m58.332 171.641v-11.004c-.535-.011-1.07-.022-1.608-.029v10.913c.619.054 1.158.095 1.608.12z"/><path d="m60.17 139.521h13.549v1.923h-13.549z"/><path d="m92.547 148.854v.115h.689c.508 0 .918.41.918.918v3.761c0 .508-.41.918-.918.918h-.689v.115c0 .505.412.918.918.918h15.5c.506 0 .918-.413.918-.918v-5.827c0-.505-.412-.918-.918-.918h-15.499c-.507-.001-.919.411-.919.918z"/><path d="m109.89 197.17-10.345-9.485c-1.602.221-4.606.665-6.398 1.033 2.689 2.333 4.567 3.915 5.62 4.738 3.495 2.728 8.631 3.685 11.123 3.714z"/><path d="m88.643 151.437v.66.632h3.675v-1.923h-3.675z"/><path d="m91.454 187.245c.977-.313 3.321-.71 5.278-1.007l-22.214-19.823c-.602 1.352-1.442 2.575-2.476 3.606l.585.522c8.047 7.204 14.338 12.782 18.827 16.702z"/><path d="m41.683 154.681v-.115h-.69c-.508 0-.918-.41-.918-.918v-3.761c0-.508.41-.918.918-.918h.689v-.115c0-.505-.412-.918-.918-.918h-15.5c-.506 0-.918.413-.918.918v5.827c0 .505.412.918.918.918h15.5c.507 0 .919-.412.919-.918z"/><path d="m45.587 152.097v-.66-.631h-3.675v1.923h3.675z"/><path d="m80.895 146.506-4.107-2.987c-.42.625-.831 1.236-1.234 1.835v3.614h3.902c.097-.164.621-1.057 1.439-2.462z"/><path d="m61.398 133.899h11.095l-2.442-2.71h-6.211z"/><path d="m60.17 135.821h13.549v1.866h-13.549z"/><path d="m66.886 119.149c-.893 0-1.73-.115-2.526-.285v10.383h5.109v-10.394c-.812.178-1.67.296-2.583.296z"/><path d="m60.169 145.208h13.49c-.002-.115.018-.227.06-.338v-1.585h-13.55z"/><path d="m77.815 141.995 4.007 2.914c.797-1.375 1.742-3.018 2.774-4.824l-3.846-2.434c-1.002 1.478-1.981 2.929-2.935 4.344z"/><path d="m60.17 147.051h13.549v1.923h-13.549z"/><path d="m85.506 138.486c3.96-6.97 8.744-15.631 10.716-20.149 1.532-3.509 2.185-5.38 2.455-6.372-1.857 2.179-9.623 13.443-16.895 24.163z"/></g><path d="m112.449 197.024-11.979-10.985c-.201-.184-.472-.275-.744-.233-.102.013-.333.045-.64.087-.017-.017-.023-.04-.042-.055l-23.877-21.307c.244-.949.386-1.938.386-2.961v-7.004h5.792c.746.971 1.906 1.608 3.221 1.608 1.316 0 2.476-.637 3.221-1.608h2.922v.115c0 1.519 1.236 2.755 2.755 2.755h15.5c1.519 0 2.755-1.236 2.755-2.755v-5.827c0-1.519-1.236-2.755-2.755-2.755h-15.498c-1.519 0-2.755 1.236-2.755 2.755v.115h-2.922c-.746-.971-1.906-1.608-3.221-1.608-.998 0-1.9.374-2.609.97 3.096-5.3 12.823-22.1 15.947-29.259 3.351-7.682 3.081-8.674 2.289-9.311-.836-.669-1.894.1-2.293.393-1.537 1.117-16.44 23.134-22.348 31.91v-7.246c0-.02-.01-.038-.011-.057l-.001-.002c-.021-.311-.195-.57-.449-.719l-3.787-4.2v-11.549c2.19-.94 3.617-2.564 3.617-4.454 0-2.978-3.531-5.312-8.038-5.312s-8.038 2.334-8.038 5.312c0 1.905 1.453 3.538 3.674 4.473v11.596l-3.715 4.121c-.279.158-.476.446-.476.789v7.486c-5.793-8.607-20.959-31.022-22.508-32.149-.401-.29-1.46-1.06-2.294-.393-.793.637-1.063 1.629 2.289 9.311 3.025 6.932 12.238 22.899 15.631 28.719-.542-.267-1.143-.43-1.786-.43-1.316 0-2.476.637-3.221 1.608h-2.921v-.115c0-1.519-1.236-2.755-2.755-2.755h-15.502c-1.519 0-2.755 1.236-2.755 2.755v5.827c0 1.519 1.236 2.755 2.755 2.755h15.5c1.519 0 2.755-1.236 2.755-2.755v-.115h2.922c.746.971 1.906 1.608 3.221 1.608 1.316 0 2.476-.637 3.221-1.608h5.448v4.23c-8.516-.182-32.093-.21-33.385 4.963-.12.479-.132 1.222.495 2.024 2.485 3.183 15.079 5.506 24.214 6.734l-14.976 13.32c-.019.017-.025.04-.043.057-.307-.043-.538-.074-.64-.087-.276-.04-.544.049-.744.233l-11.98 10.985c-.362.33-.399.888-.084 1.265.397.477 1.406.711 2.755.711 3.32 0 8.707-1.416 12.141-4.097 2.83-2.21 10.67-9.084 23.304-20.43.547-.491.909-.817 1.069-.96h3.154c2.621 0 5.038-.858 7.01-2.295l.778.695c14.546 13.02 23.372 20.754 26.237 22.99 3.434 2.684 8.819 4.097 12.139 4.097 1.35 0 2.358-.233 2.756-.711.319-.377.28-.935-.081-1.265zm-52.28-25.35v-17.108h13.549v7.004c0 5.57-4.533 10.104-10.104 10.104zm-27.384-4.263c-2.926-.85-5.132-1.782-5.895-2.759-.207-.266-.175-.393-.161-.448.239-.956 2.541-1.726 6.056-2.308zm2.265-55.44c1.89 2.227 9.638 13.463 16.892 24.157l-3.724 2.358c-3.96-6.972-8.744-15.631-10.716-20.149-1.527-3.5-2.182-5.369-2.452-6.366zm21.886 31.548c.476.706.942 1.4 1.396 2.076v3.374h-4.064c-.097-.164-.621-1.057-1.439-2.462zm-5.034 1.39c-.797-1.375-1.742-3.018-2.774-4.824l3.846-2.434c1.002 1.479 1.982 2.93 2.935 4.344zm6.43 15.729v11.004c-.448-.025-.988-.066-1.608-.12v-10.913c.537.007 1.072.017 1.608.029zm-20.438.613c4.928-.466 10.954-.687 16.993-.658v10.748c-4.46-.473-11.204-1.426-16.993-2.668zm-3.273.371c.465-.062.941-.121 1.436-.178v6.817c-.491-.115-.968-.233-1.436-.353zm17.453 11.204c2.404.294 4.418.495 5.729.6-6.468 5.807-11.662 10.426-15.535 13.816-.978-.312-3.318-.707-5.271-1.005zm-11.498 15.891c-2.641 2.294-4.52 3.876-5.62 4.736-3.55 2.774-8.792 3.718-11.18 3.767l10.402-9.537c1.602.222 4.606.667 6.398 1.034zm13.163-35.988v-.631-.66-.631h26.753v.631.66.631zm19.347-38.892c0 1.884-2.839 3.475-6.2 3.475s-6.2-1.591-6.2-3.475 2.839-3.475 6.2-3.475 6.2 1.592 6.2 3.475zm-12.917 27.611v-1.923h13.549v1.923zm13.548 1.837v1.585c-.042.111-.062.223-.06.338h-13.488v-1.923zm-13.548-5.598v-1.866h13.549v1.866zm9.882-6.498 2.442 2.709h-11.095l2.442-2.709zm-5.691-1.941v-10.383c.796.17 1.633.285 2.526.285.914 0 1.771-.118 2.583-.296v10.394zm-4.191 17.797h13.549v1.923h-13.549zm36.053-28.708c-1.971 4.518-6.755 13.177-10.716 20.149l-3.724-2.358c7.272-10.72 15.038-21.984 16.895-24.163-.27.992-.924 2.863-2.455 6.372zm-9.416 33.1v.66c0 1.235-1.004 2.239-2.239 2.239s-2.239-1.004-2.239-2.239v-.66c0-1.235 1.004-2.239 2.239-2.239s2.239 1.004 2.239 2.239zm-4.984-6.528-4.007-2.914c.953-1.415 1.933-2.866 2.935-4.344l3.846 2.434c-1.032 1.806-1.978 3.448-2.774 4.824zm-6.268.445c.403-.6.813-1.21 1.234-1.835l4.107 2.987c-.818 1.405-1.342 2.298-1.439 2.463h-3.902zm-1.036 21.059 22.214 19.823c-1.955.299-4.301.695-5.278 1.007-4.49-3.921-10.78-9.497-18.828-16.703l-.585-.522c1.035-1.029 1.875-2.253 2.477-3.605zm25.028 21.271 10.345 9.485c-2.493-.029-7.628-.985-11.123-3.714-1.053-.823-2.931-2.406-5.62-4.738 1.792-.367 4.796-.812 6.398-1.033zm10.34-38.83v5.827c0 .505-.412.918-.918.918h-15.502c-.506 0-.918-.413-.918-.918v-.115h.689c.508 0 .918-.41.918-.918v-3.761c0-.508-.41-.918-.918-.918h-.689v-.115c0-.505.412-.918.918-.918h15.5c.507-.001.92.411.92.918zm-17.568 3.875h-3.674v-.631-.66-.631h3.674zm-67.974 1.952v-5.827c0-.505.412-.918.918-.918h15.5c.506 0 .918.413.918.918v.115h-.687c-.508 0-.918.41-.918.918v3.761c0 .508.41.918.918.918h.689v.115c0 .505-.412.918-.918.918h-15.5c-.507 0-.92-.412-.92-.918zm17.568-3.875h3.674v.631.66.631h-3.674zm9.99 1.291c0 1.235-1.004 2.239-2.239 2.239s-2.239-1.004-2.239-2.239v-.66c0-1.235 1.004-2.239 2.239-2.239s2.239 1.004 2.239 2.239z" fill="#d23741"/></svg>