<svg enable-background="new 0 0 512.001 512.001" viewBox="0 0 512.001 512.001" xmlns="http://www.w3.org/2000/svg"><path d="m503.172 423.725h-494.344c-4.875 0-8.828-3.953-8.828-8.828v-317.793c0-4.875 3.953-8.828 8.828-8.828h494.345c4.875 0 8.828 3.953 8.828 8.828v317.793c-.001 4.876-3.954 8.828-8.829 8.828z" fill="#f5f5f5"/><path d="m256 256.001h247.172c4.875 0 8.828-3.953 8.828-8.828v-150.069c0-4.875-3.953-8.828-8.828-8.828h-238.344c-4.875 0-8.828 3.953-8.828 8.828z" fill="#ff4b55"/><path d="m8.828 423.725h238.345c4.875 0 8.828-3.953 8.828-8.828v-158.896h-247.173c-4.875 0-8.828 3.953-8.828 8.828v150.069c0 4.875 3.953 8.827 8.828 8.827z" fill="#4173cd"/><path d="m131.4 134.488 8.416 25.234 26.6.206c3.444.026 4.872 4.422 2.101 6.467l-21.398 15.801 8.023 25.362c1.038 3.284-2.7 5.999-5.502 3.997l-21.64-15.467-21.641 15.468c-2.802 2.003-6.54-.714-5.502-3.997l8.023-25.362-21.398-15.801c-2.771-2.046-1.343-6.441 2.101-6.467l26.6-.206 8.416-25.234c1.09-3.268 5.712-3.268 6.801-.001z" fill="#4173cd"/><path d="m387.4 302.212 8.416 25.234 26.6.206c3.444.026 4.872 4.422 2.101 6.467l-21.398 15.801 8.023 25.362c1.038 3.284-2.7 5.999-5.502 3.997l-21.64-15.467-21.641 15.468c-2.802 2.003-6.54-.714-5.502-3.997l8.023-25.362-21.398-15.801c-2.771-2.046-1.343-6.441 2.101-6.467l26.6-.206 8.416-25.234c1.09-3.268 5.712-3.268 6.801-.001z" fill="#ff4b55"/></svg>