<svg enable-background="new 0 0 512.001 512.001" viewBox="0 0 512.001 512.001" xmlns="http://www.w3.org/2000/svg"><path d="m512 155.367h-512v-58.263c0-4.875 3.953-8.828 8.828-8.828h494.345c4.875 0 8.828 3.953 8.828 8.828z" fill="#ff4b55"/><path d="m0 155.371h512v67.09h-512z" fill="#f5f5f5"/><path d="m0 222.461h512v67.09h-512z" fill="#ff4b55"/><path d="m503.172 423.725h-494.344c-4.875 0-8.828-3.953-8.828-8.828v-58.262h512v58.262c0 4.876-3.953 8.828-8.828 8.828z" fill="#ff4b55"/><path d="m0 289.551h512v67.09h-512z" fill="#f5f5f5"/><path d="m3.256 421.591 244.341-160.086c3.966-2.599 3.966-8.412 0-11.009l-244.341-160.085c-1.945 1.619-3.256 3.965-3.256 6.693v317.793c0 2.729 1.311 5.075 3.256 6.694z" fill="#41479b"/><path d="m90.183 215.027 9.213 27.623 29.118.226c3.769.029 5.333 4.84 2.301 7.08l-23.424 17.298 8.783 27.763c1.138 3.594-2.955 6.568-6.023 4.375l-23.69-16.932-23.69 16.932c-3.066 2.193-7.159-.781-6.023-4.375l8.783-27.763-23.424-17.298c-3.032-2.24-1.47-7.05 2.301-7.08l29.118-.226 9.213-27.623c1.193-3.577 6.251-3.577 7.444 0z" fill="#f5f5f5"/></svg>