<svg enable-background="new 0 0 512.001 512.001" viewBox="0 0 512.001 512.001" xmlns="http://www.w3.org/2000/svg"><path d="m503.172 423.725h-494.344c-4.875 0-8.828-3.953-8.828-8.828v-317.793c0-4.875 3.953-8.828 8.828-8.828h494.345c4.875 0 8.828 3.953 8.828 8.828v317.793c-.001 4.876-3.954 8.828-8.829 8.828z" fill="#ff4b55"/><path d="m185.379 88.277h-176.551c-4.875 0-8.828 3.952-8.828 8.827v317.793c0 4.875 3.953 8.828 8.828 8.828h176.552v-335.448z" fill="#73af00"/><circle cx="185.45" cy="256.001" fill="#ffe15a" r="79.38"/><path d="m211.932 229.518v35.31c0 14.603-11.88 26.483-26.483 26.483s-26.483-11.88-26.483-26.483v-35.31zm8.827-17.655h-70.621c-4.875 0-8.828 3.953-8.828 8.828v44.138c0 24.376 19.762 44.138 44.138 44.138s44.138-19.762 44.138-44.138v-44.138c.001-4.875-3.952-8.828-8.827-8.828z" fill="#ff4b55"/><path d="m211.932 229.518v35.31c0 14.603-11.88 26.483-26.483 26.483s-26.483-11.88-26.483-26.483v-35.31z" fill="#f5f5f5"/><g fill="#ffe15a"><circle cx="150.07" cy="220.691" r="4.414"/><circle cx="220.69" cy="220.691" r="4.414"/><circle cx="150.07" cy="256.001" r="4.414"/><circle cx="220.69" cy="256.001" r="4.414"/><circle cx="185.38" cy="220.691" r="4.414"/><circle cx="211.88" cy="288.551" r="4.414"/><circle cx="159.4" cy="288.551" r="4.414"/></g><path d="m191.149 253.763v7.602c0 3.144-2.558 5.702-5.702 5.702s-5.702-2.558-5.702-5.702v-7.602z" fill="#41479b"/><path d="m191.149 235.741v7.602c0 3.144-2.558 5.702-5.702 5.702s-5.702-2.558-5.702-5.702v-7.602z" fill="#41479b"/><path d="m191.149 271.97v7.602c0 3.144-2.558 5.702-5.702 5.702s-5.702-2.558-5.702-5.702v-7.602z" fill="#41479b"/><path d="m206.506 253.763v7.602c0 3.144-2.558 5.702-5.702 5.702s-5.702-2.558-5.702-5.702v-7.602z" fill="#41479b"/><path d="m175.794 253.763v7.602c0 3.144-2.558 5.702-5.702 5.702s-5.702-2.558-5.702-5.702v-7.602z" fill="#41479b"/></svg>