<svg enable-background="new 0 0 512.001 512.001" viewBox="0 0 512.001 512.001" xmlns="http://www.w3.org/2000/svg"><path d="m238.345 423.725h-229.517c-4.875 0-8.828-3.953-8.828-8.828v-317.793c0-4.875 3.953-8.828 8.828-8.828h229.517z" fill="#f5f5f5"/><path d="m503.172 88.277h-335.8c.233 0 .465.034.689.104l53.386 16.312c2.223.679 2.222 3.828-.002 4.505l-46.335 14.108c-2.225.678-2.226 3.826-.002 4.505l46.34 14.162c2.223.679 2.222 3.828-.002 4.504l-46.336 14.109c-2.225.678-2.226 3.826-.002 4.505l46.34 14.162c2.223.679 2.222 3.828-.002 4.504l-46.322 14.103c-2.226.679-2.226 3.829 0 4.506l46.322 14.103c2.225.678 2.226 3.826.002 4.505l-46.34 14.162c-2.223.68-2.222 3.829.002 4.505l46.336 14.108c2.225.676 2.226 3.826.002 4.505l-46.34 14.162c-2.223.68-2.222 3.828.002 4.505l46.336 14.108c2.225.676 2.226 3.826.002 4.504l-46.34 14.162c-2.223.68-2.222 3.829.002 4.505l46.335 14.109c2.225.676 2.226 3.826.002 4.504l-46.339 14.161c-2.223.68-2.222 3.828.002 4.505l46.322 14.105c2.226.676 2.226 3.828 0 4.504l-46.322 14.105c-2.225.676-2.226 3.826-.002 4.504l46.34 14.162c2.223.679 2.222 3.828-.002 4.504l-53.386 16.255c-.222.068-.454.103-.686.103h335.799c4.875 0 8.828-3.953 8.828-8.828v-317.789c-.001-4.875-3.954-8.827-8.829-8.827z" fill="#873250"/></svg>