<svg enable-background="new 0 0 512.001 512.001" viewBox="0 0 512.001 512.001" xmlns="http://www.w3.org/2000/svg"><path d="m512 256h-512v-158.897c0-4.875 3.953-8.828 8.828-8.828h494.345c4.875 0 8.828 3.953 8.828 8.828z" fill="#4173cd"/><path d="m0 256h512v158.897c0 4.875-3.953 8.828-8.828 8.828h-494.344c-4.875 0-8.828-3.953-8.828-8.828z" fill="#4173cd"/><path d="m0 256h512v83.86h-512z" fill="#ffe15a"/><path d="m8.828 423.724h494.345c4.875 0 8.828-3.953 8.828-8.828v-75.034h-512.001v75.034c0 4.876 3.953 8.828 8.828 8.828z" fill="#73af00"/><g fill="#ffe15a"><path d="m458.211 178.12 36.134-5.982-36.134-5.982 31.094-19.354-35.672 8.301 21.321-29.78-29.78 21.321 8.301-35.672-19.354 31.094-5.983-36.135-5.982 36.134-19.354-31.094 8.301 35.672-29.78-21.321 21.321 29.78-35.672-8.301 31.094 19.354-36.135 5.983 36.134 5.982-31.094 19.354 35.672-8.301-21.321 29.78 29.78-21.321-8.301 35.672 19.354-31.094 5.983 36.135 5.982-36.134 19.354 31.094-8.301-35.672 29.78 21.321-21.321-29.78 35.672 8.301zm-30.073 16.087c-12.189 0-22.069-9.88-22.069-22.069s9.88-22.069 22.069-22.069 22.069 9.88 22.069 22.069-9.88 22.069-22.069 22.069z"/><circle cx="428.14" cy="172.14" r="16.552"/></g></svg>