<svg enable-background="new 0 0 512.001 512.001" viewBox="0 0 512.001 512.001" xmlns="http://www.w3.org/2000/svg"><path d="m503.172 423.724h-494.344c-4.875 0-8.828-3.953-8.828-8.828v-317.793c0-4.875 3.953-8.828 8.828-8.828h494.345c4.875 0 8.828 3.953 8.828 8.828v317.793c-.001 4.876-3.954 8.828-8.829 8.828z" fill="#41479b"/><path d="m508.744 90.41-505.488 331.18c1.53 1.274 3.425 2.134 5.571 2.134h494.345c4.875 0 8.828-3.953 8.828-8.828v-317.793c0-2.728-1.311-5.075-3.256-6.693z" fill="#73af00"/><path d="m512 97.103c0-4.875-3.953-8.828-8.828-8.828h-15.339l-487.833 319.616v7.006c0 4.875 3.953 8.828 8.828 8.828h15.339l487.833-319.616z" fill="#ffe15a"/><g fill="#f5f5f5"><path d="m44.429 115.778-4.726 14.169-14.936.116c-1.432.011-2.026 1.839-.874 2.69l12.015 8.873-4.505 14.241c-.433 1.366 1.123 2.495 2.289 1.663l12.152-8.685 12.152 8.685c1.165.833 2.72-.297 2.289-1.663l-4.505-14.241 12.015-8.873c1.152-.851.558-2.679-.874-2.69l-14.936-.116-4.726-14.169c-.454-1.359-2.376-1.359-2.83 0z"/><path d="m158.21 115.778-4.726 14.169-14.936.116c-1.432.011-2.026 1.839-.874 2.69l12.015 8.873-4.505 14.241c-.433 1.366 1.123 2.495 2.289 1.663l12.152-8.685 12.152 8.685c1.165.833 2.72-.297 2.289-1.663l-4.505-14.241 12.015-8.873c1.152-.851.558-2.679-.874-2.69l-14.936-.116-4.726-14.169c-.455-1.359-2.377-1.359-2.83 0z"/><path d="m101.32 166.476-4.726 14.169-14.936.116c-1.432.011-2.026 1.839-.874 2.69l12.015 8.873-4.505 14.241c-.433 1.366 1.123 2.495 2.289 1.663l12.152-8.685 12.152 8.685c1.165.833 2.72-.297 2.289-1.663l-4.505-14.241 12.015-8.873c1.152-.851.558-2.679-.874-2.69l-14.936-.116-4.726-14.169c-.456-1.359-2.377-1.359-2.83 0z"/><path d="m44.429 217.174-4.726 14.169-14.936.116c-1.432.011-2.026 1.839-.874 2.69l12.015 8.873-4.505 14.241c-.433 1.366 1.123 2.495 2.289 1.663l12.152-8.685 12.152 8.685c1.165.833 2.72-.297 2.289-1.663l-4.505-14.241 12.015-8.873c1.152-.851.558-2.679-.874-2.69l-14.936-.116-4.726-14.169c-.454-1.359-2.376-1.359-2.83 0z"/><path d="m158.21 217.174-4.726 14.169-14.936.116c-1.432.011-2.026 1.839-.874 2.69l12.015 8.873-4.505 14.241c-.433 1.366 1.123 2.495 2.289 1.663l12.152-8.685 12.152 8.685c1.165.833 2.72-.297 2.289-1.663l-4.505-14.241 12.015-8.873c1.152-.851.558-2.679-.874-2.69l-14.936-.116-4.726-14.169c-.455-1.359-2.377-1.359-2.83 0z"/></g></svg>