<svg enable-background="new 0 0 512.001 512.001" viewBox="0 0 512.001 512.001" xmlns="http://www.w3.org/2000/svg"><path d="m8.828 423.724h494.345c4.875 0 8.828-3.953 8.828-8.828v-102.988l-507.151 110.756c1.209.624 2.523 1.06 3.978 1.06z" fill="#73af00"/><path d="m170.667 88.276h-161.839c-4.875 0-8.828 3.953-8.828 8.828v317.792c0 1.972.769 3.699 1.862 5.169z" fill="#41479b"/><path d="m2.613 421.158 338.72-332.881h-170.666l-168.805 331.788c.264.356.436.78.751 1.093z" fill="#ffe15a"/><path d="m503.172 88.276h-161.839l-338.72 332.882c.367.364.858.569 1.284.865l508.103-221.931v-102.988c0-4.875-3.953-8.828-8.828-8.828z" fill="#ff4b55"/><path d="m4.85 422.664 507.149-110.757v-111.815l-508.103 221.93c.317.22.609.466.954.642z" fill="#f5f5f5"/></svg>