<svg enable-background="new 0 0 512 512" viewBox="0 0 512 512" xmlns="http://www.w3.org/2000/svg"><path d="m170.667 423.721h-161.839c-4.875 0-8.828-3.953-8.828-8.828v-317.793c0-4.875 3.953-8.828 8.828-8.828h161.839z" fill="#73af00"/><path d="m170.67 88.277h170.67v335.45h-170.67z" fill="#ffe15a"/><path d="m503.172 423.721h-161.839v-335.448h161.839c4.875 0 8.828 3.953 8.828 8.828v317.793c0 4.876-3.953 8.827-8.828 8.827z" fill="#ff4b55"/><path d="m258.04 205.777 11.693 35.062 36.959.287c2.067.017 2.924 2.654 1.261 3.881l-29.732 21.955 11.148 35.239c.623 1.971-1.62 3.601-3.302 2.399l-30.067-21.493-30.069 21.492c-1.682 1.202-3.925-.428-3.302-2.399l11.148-35.239-29.732-21.955c-1.663-1.228-.806-3.865 1.261-3.881l36.959-.287 11.693-35.062c.655-1.96 3.429-1.96 4.082.001z" fill="#73af00"/></svg>