<svg enable-background="new 0 0 512.001 512.001" viewBox="0 0 512.001 512.001" xmlns="http://www.w3.org/2000/svg"><path d="m503.172 423.725h-494.344c-4.875 0-8.828-3.953-8.828-8.828v-317.793c0-4.875 3.953-8.828 8.828-8.828h494.345c4.875 0 8.828 3.953 8.828 8.828v317.793c-.001 4.876-3.954 8.828-8.829 8.828z" fill="#73af00"/><path d="m0 150.071h512v35.31h-512z" fill="#f5f5f5"/><path d="m0 326.621h512v35.31h-512z" fill="#f5f5f5"/><path d="m0 185.381h512v141.24h-512z" fill="#c8414b"/><path d="m253.801 201.615-12.854 38.541-40.627.314c-2.228.018-3.15 2.86-1.359 4.183l32.683 24.135-12.255 38.737c-.672 2.124 1.746 3.881 3.559 2.585l33.052-23.625 33.053 23.625c1.812 1.295 4.23-.461 3.559-2.585l-12.255-38.737 32.683-24.135c1.792-1.323.868-4.166-1.359-4.183l-40.627-.314-12.854-38.541c-.706-2.113-3.694-2.113-4.399 0z" fill="#ffe15a"/></svg>