<svg enable-background="new 0 0 512.001 512.001" viewBox="0 0 512.001 512.001" xmlns="http://www.w3.org/2000/svg"><path d="m512 200.093h-512v-102.989c0-4.875 3.953-8.828 8.828-8.828h494.345c4.875 0 8.828 3.953 8.828 8.828z" fill="#464655"/><path d="m503.172 423.724h-494.344c-4.875 0-8.828-3.953-8.828-8.828v-102.988h512v102.988c0 4.876-3.953 8.828-8.828 8.828z" fill="#73af00"/><path d="m0 200.09h512v111.81h-512z" fill="#ff4b55"/><g fill="#f5f5f5"><path d="m95.398 233.164 5.247 11.381 12.169-2.994c.76-.186 1.389.602 1.038 1.302l-5.626 11.198 9.928 7.648c.62.478.395 1.462-.371 1.623l-12.263 2.583.211 12.531c.013.782-.897 1.22-1.5.723l-9.665-7.977-9.665 7.977c-.604.498-1.513.06-1.5-.723l.211-12.531-12.263-2.583c-.766-.161-.99-1.145-.371-1.623l9.928-7.648-5.626-11.198c-.351-.7.278-1.489 1.038-1.302l12.169 2.994 5.247-11.381c.327-.71 1.338-.71 1.664 0z"/><path d="m0 194.21h512v15.01h-512z"/><path d="m0 302.79h512v15.01h-512z"/></g><path d="m2.877 421.335 230.323-161.722c2.504-1.758 2.504-5.466 0-7.224l-230.323-161.723c-1.746 1.614-2.877 3.873-2.877 6.438v317.792c0 2.565 1.131 4.826 2.877 6.439z" fill="#41479b"/><path d="m73.561 214.847 19.831 20.297 25.624-12.192c3.317-1.579 6.735 1.974 5.03 5.228l-13.175 25.132 19.513 20.602c2.527 2.667.204 7.016-3.418 6.399l-27.973-4.765-13.564 24.925c-1.756 3.227-6.61 2.361-7.142-1.273l-4.114-28.077-27.896-5.197c-3.612-.673-4.288-5.556-.995-7.186l25.432-12.588-3.678-28.138c-.477-3.643 3.957-5.794 6.525-3.167z" fill="#ffe15a"/></svg>