<svg enable-background="new 0 0 512.001 512.001" viewBox="0 0 512.001 512.001" xmlns="http://www.w3.org/2000/svg"><path d="m512 200.093h-512v-102.989c0-4.875 3.953-8.828 8.828-8.828h494.345c4.875 0 8.828 3.953 8.828 8.828z" fill="#41479b"/><path d="m503.172 423.725h-494.344c-4.875 0-8.828-3.953-8.828-8.828v-102.988h512v102.988c0 4.876-3.953 8.828-8.828 8.828z" fill="#41479b"/><path d="m0 200.091h512v111.81h-512z" fill="#f5f5f5"/><g fill="#50af69"><path d="m255.789 293.563c-21.295 0-38.621-17.325-38.621-38.621 0-9.097 3.224-17.931 9.08-24.877l1.687 1.422c-5.521 6.548-8.561 14.877-8.561 23.455 0 20.077 16.335 36.414 36.414 36.414z"/><path d="m241.662 282.16c-.482.823-.721 1.953-.825 3.1-.436-.314-.898-.606-1.4-.851 0 0-.759 2.674-.166 4.599 0 0-2.013.249-3.861 2.103 0 0 .637.45 1.73.919-1.835 1.432-2.401 2.848-2.401 2.848 10.83 5.415 16.02-2.138 16.246-2.477-2.653-7.569-9.323-10.241-9.323-10.241z"/><path d="m250.985 292.403c.007.019.015.035.022.055v-.087s-.017.024-.022.032z"/><path d="m231.66 274.942c-.707.518-1.321 1.383-1.83 2.312-.253-.424-.535-.839-.87-1.229 0 0-1.618 1.976-1.821 3.817 0 0-1.788-.525-4.023.362 0 0 .372.612 1.122 1.408-2.07.536-3.065 1.523-3.065 1.523 7.149 8.525 14.287 4.055 14.601 3.852.534-7.355-4.114-12.045-4.114-12.045z"/><path d="m235.775 286.985c-.001.019 0 .035-.002.054l.032-.073s-.022.014-.03.019z"/><path d="m225.455 265.505c-.772.163-1.598.647-2.359 1.22-.051-.442-.129-.887-.259-1.332 0 0-2.061 1.024-2.91 2.461 0 0-1.274-1.095-3.438-1.194 0 0 .078.641.401 1.572-1.899-.327-3.082.115-3.082.115 2.713 9.652 10.232 8.625 10.567 8.574 3.158-5.84 1.08-11.416 1.08-11.416z"/><path d="m224.372 276.922c-.008.014-.013.029-.022.044l.053-.049c.001.001-.023.004-.031.005z"/><path d="m222.999 254.75c-.733.047-1.586.367-2.403.774.056-.39.087-.786.073-1.187 0 0-2.09.639-3.183 1.782 0 0-.896-1.103-2.822-1.452 0 0-.076.566 0 1.412-1.634-.513-2.801-.274-2.801-.274.228 8.702 7.231 8.721 7.543 8.717 4.185-4.684 3.593-9.772 3.593-9.772z"/><path d="m219.405 264.524c-.011.012-.019.023-.03.035l.058-.035c.001 0-.021-.001-.028 0z"/><path d="m223.814 245.843c-.627-.15-1.426-.103-2.217.028.148-.312.277-.637.367-.977 0 0-1.919-.004-3.132.672 0 0-.466-1.158-1.991-1.948 0 0-.211.455-.366 1.185-1.238-.853-2.279-.953-2.279-.953-2.06 7.358 3.809 9.186 4.072 9.263 4.725-2.849 5.546-7.27 5.546-7.27z"/><path d="m218.27 253.112c-.012.008-.022.015-.034.022l.058-.014s-.019-.007-.024-.008z"/><path d="m219.168 235.011s-2.001 5.241 1.103 8.276c0 0 4.046-1.195 6.046-5.402l-1.702-.322-.874-2.621-2.897 1.288z"/><path d="m224.802 226.586s-3.135 4.652-.8 8.311c0 0 4.212-.248 7.113-3.893l-1.585-.698-.257-2.751-3.113.598z"/><path d="m256.211 293.563v-2.207c20.078 0 36.414-16.337 36.414-36.414 0-8.577-3.04-16.907-8.561-23.455l1.687-1.422c5.856 6.946 9.08 15.78 9.08 24.877 0 21.296-17.325 38.621-38.62 38.621z"/><path d="m270.338 282.16c.482.823.721 1.953.825 3.1.436-.314.898-.606 1.4-.851 0 0 .759 2.674.165 4.599 0 0 2.013.249 3.861 2.103 0 0-.637.45-1.73.919 1.835 1.432 2.401 2.848 2.401 2.848-10.83 5.415-16.02-2.138-16.246-2.477 2.654-7.569 9.324-10.241 9.324-10.241z"/><path d="m261.015 292.403c-.007.019-.015.035-.022.055v-.087s.017.024.022.032z"/><path d="m280.34 274.942c.707.518 1.321 1.383 1.829 2.312.253-.424.535-.839.87-1.229 0 0 1.618 1.976 1.821 3.817 0 0 1.788-.525 4.023.362 0 0-.372.612-1.122 1.408 2.07.536 3.065 1.523 3.065 1.523-7.149 8.525-14.287 4.055-14.601 3.852-.533-7.355 4.115-12.045 4.115-12.045z"/><path d="m276.225 286.985c.001.019 0 .035.002.054l-.032-.073s.022.014.03.019z"/><path d="m286.545 265.505c.772.163 1.598.647 2.359 1.22.051-.442.129-.887.259-1.332 0 0 2.061 1.024 2.91 2.461 0 0 1.274-1.095 3.438-1.194 0 0-.078.641-.401 1.572 1.899-.327 3.082.115 3.082.115-2.713 9.652-10.232 8.625-10.567 8.574-3.158-5.84-1.08-11.416-1.08-11.416z"/><path d="m287.628 276.922c.008.014.013.029.022.044l-.053-.049c-.001.001.023.004.031.005z"/><path d="m289.001 254.75c.733.047 1.586.367 2.403.774-.056-.39-.087-.786-.073-1.187 0 0 2.09.639 3.183 1.782 0 0 .896-1.103 2.822-1.452 0 0 .076.566 0 1.412 1.634-.513 2.801-.274 2.801-.274-.228 8.702-7.231 8.721-7.543 8.717-4.185-4.684-3.593-9.772-3.593-9.772z"/><path d="m292.595 264.524c.011.012.019.023.03.035l-.059-.035s.022-.001.029 0z"/><path d="m288.186 245.843c.627-.15 1.426-.103 2.217.028-.148-.312-.277-.637-.367-.977 0 0 1.919-.004 3.132.672 0 0 .466-1.158 1.991-1.948 0 0 .211.455.366 1.185 1.238-.853 2.279-.953 2.279-.953 2.06 7.358-3.809 9.186-4.072 9.263-4.725-2.849-5.546-7.27-5.546-7.27z"/><path d="m293.73 253.112c.012.008.022.015.034.022l-.058-.014s.019-.007.024-.008z"/><path d="m292.832 235.011s2.001 5.241-1.103 8.276c0 0-4.046-1.195-6.046-5.402l1.702-.322.874-2.621 2.897 1.288z"/><path d="m287.198 226.586s3.135 4.652.8 8.311c0 0-4.212-.248-7.113-3.893l1.585-.698.257-2.751 3.113.598z"/></g><path d="m256 270.346-3.412 5.118c-.583.874-.468 2.038.276 2.781l3.136 3.136 3.136-3.136c.743-.743.858-1.907.276-2.781z" fill="#41479b"/><path d="m257.454 275.464-1.454-5.118-1.454 5.118c-.248.874-.199 2.038.117 2.781l1.337 3.136 1.336-3.136c.317-.744.367-1.907.118-2.781z" fill="#f5f5f5"/><path d="m256 224.553v-13.793s-5.241 7.54-4.414 18.574" fill="#41479b"/><path d="m232.494 224.6c-7.582 16.456.195 29.996 1.827 32.545.043.068 10.827-17.376 10.827-17.376z" fill="#41479b"/><path d="m240.477 247.315c-1.196-3.725-1.369-8.075.067-13.066l-4.692-5.624c-3.855 10.388-2.26 18.058 1.599 23.562.947-1.523 1.999-3.217 3.026-4.872z" fill="#f5f5f5"/><path d="m244.967 240.688c-.329 0-.654-.147-.872-.427l-13.837-17.791c-.375-.481-.288-1.174.193-1.547.483-.375 1.174-.287 1.548.194l13.837 17.791c.375.481.288 1.174-.193 1.547-.201.158-.44.233-.676.233z" fill="#ffe15a"/><path d="m222.897 241.699c-4.414 44.138 30.897 33.103 33.103 28.69l-22.069-11.034 4.414-8.828z" fill="#41479b"/><path d="m233.567 246.778-6.151-3.69c-1.384 26.228 12.622 30.596 22.953 29.294-8.375-1.124-16.743-7.308-16.802-25.604z" fill="#f5f5f5"/><path d="m238.343 251.628c-.2 0-.402-.054-.584-.168l-17.654-11.032c-.516-.323-.673-1.004-.35-1.519.322-.52 1.002-.676 1.521-.351l17.654 11.032c.516.323.673 1.004.35 1.519-.21.336-.57.519-.937.519z" fill="#ffe15a"/><path d="m279.506 224.556c7.582 16.456-.195 29.996-1.827 32.545-.043.068-10.827-17.376-10.827-17.376z" fill="#41479b"/><path d="m271.523 247.271c1.196-3.725 1.369-8.075-.067-13.066l4.692-5.624c3.855 10.388 2.26 18.058-1.599 23.562-.947-1.522-1.999-3.217-3.026-4.872z" fill="#f5f5f5"/><path d="m267.033 240.645c-.236 0-.476-.075-.676-.233-.481-.373-.568-1.067-.193-1.547l13.837-17.791c.375-.481 1.067-.567 1.548-.194s.568 1.067.193 1.547l-13.837 17.791c-.217.281-.543.427-.872.427z" fill="#ffe15a"/><path d="m289.103 241.656c4.414 44.138-30.897 33.103-33.103 28.69l22.069-11.034-4.414-8.828z" fill="#41479b"/><path d="m278.433 246.734 6.151-3.69c1.384 26.228-12.622 30.596-22.953 29.294 8.375-1.124 16.743-7.307 16.802-25.604z" fill="#f5f5f5"/><path d="m273.657 251.585c-.367 0-.727-.183-.937-.52-.323-.515-.165-1.196.35-1.519l17.654-11.032c.519-.326 1.198-.168 1.521.351.323.515.166 1.196-.35 1.519l-17.654 11.032c-.182.115-.384.169-.584.169z" fill="#ffe15a"/><circle cx="256" cy="243.861" fill="#ffe6e6" r="8.828"/><circle cx="256" cy="243.861" fill="#f5f5f5" r="4.414"/><path d="m256 258.208c-.61 0-1.103-.493-1.103-1.103v-13.241c0-.61.493-1.103 1.103-1.103s1.103.493 1.103 1.103v13.241c0 .61-.493 1.103-1.103 1.103z" fill="#ffe15a"/><path d="m286.161 270.162h-59.127l6.897-13.124h44.322z" fill="#5aa0e6"/><path d="m257.795 259.496h15.377l-4.783-4.783c-.225-.225-.5-.395-.801-.495l-1.665-.555c-.6-.2-1.259-.111-1.785.239l-5.316 3.544z" fill="#ffb750"/><path d="m252.567 260.323h18.353l-5.709-5.709c-.268-.268-.596-.471-.957-.591l-1.987-.662c-.716-.238-1.503-.134-2.131.286l-6.345 4.231z" fill="#ffc455"/><path d="m246.183 261.242h22.163l-6.894-6.894c-.324-.324-.719-.568-1.155-.714l-2.4-.8c-.865-.288-1.815-.161-2.573.344l-7.662 5.108z" fill="#ffcd55"/><path d="m239.865 262.07h25.376l-7.894-7.894c-.372-.372-.824-.651-1.323-.818l-2.748-.916c-.991-.33-2.078-.184-2.947.395l-8.774 5.849z" fill="#ffd25a"/><path d="m229.517 263.725h33.103l-10.297-10.297c-.484-.484-1.075-.85-1.726-1.066l-3.584-1.195c-1.292-.43-2.711-.241-3.844.515l-11.445 7.629z" fill="#ffe15a"/><path d="m258.382 245.843h-4.771l1.099-4.607h1.658c.537 0 1.004.369 1.129.892z" fill="#ff4b55"/><path d="m258.108 246.583h-4.284c-.351 0-.634-.284-.634-.634v-.212c0-.351.285-.634.634-.634h4.284c.351 0 .634.285.634.634v.212c0 .349-.285.634-.634.634z" fill="#ff4b55"/><path d="m255.276 243.333-1.071-.271c-.323-.082-.463-.462-.27-.734l.775-1.092z" fill="#ff4b55"/><path d="m250.495 232.527c-.052.405-.105.811-.157 1.216 1.715-1.041 3.607-1.665 5.662-1.665 2.053.002 3.946.622 5.662 1.665-.052-.406-.105-.811-.157-1.216-1.706-.89-3.542-1.402-5.505-1.4-1.962-.002-3.798.509-5.505 1.4z" fill="#41479b"/><path d="m250.563 231.999c-.052.405-.105.811-.157 1.216 1.696-1.043 3.565-1.668 5.593-1.671 2.028.002 3.897.627 5.593 1.671-.052-.406-.105-.811-.157-1.216-1.687-.897-3.499-1.405-5.437-1.406-1.936 0-3.748.511-5.435 1.406z" fill="#5aa0e6"/><path d="m250.626 231.51c-.052.405-.105.811-.157 1.216 1.679-1.046 3.527-1.676 5.53-1.675 2.004 0 3.851.629 5.53 1.675-.052-.405-.105-.811-.157-1.216-1.668-.896-3.459-1.41-5.374-1.411-1.911-.001-3.702.514-5.372 1.411z" fill="#9bc800"/><path d="m250.699 230.951c-.052.406-.105.811-.157 1.216 1.66-1.049 3.482-1.681 5.459-1.681 1.976.002 3.799.63 5.459 1.681-.052-.405-.105-.811-.157-1.216-1.649-.9-3.414-1.416-5.301-1.417-1.889.002-3.654.517-5.303 1.417z" fill="#ffe14e"/><path d="m250.77 230.402c-.052.405-.105.811-.157 1.216 1.641-1.053 3.437-1.685 5.387-1.686 1.95.002 3.747.632 5.387 1.686-.052-.405-.105-.811-.157-1.216-1.629-.903-3.37-1.421-5.23-1.422-1.86.002-3.602.518-5.23 1.422z" fill="#ffb14e"/><path d="m250.799 230.168c-.036.284-.073.568-.109.852 1.619-1.054 3.391-1.693 5.311-1.693 1.92-.001 3.691.637 5.311 1.693-.036-.284-.073-.568-.109-.852-1.62-.904-3.351-1.423-5.201-1.425-1.851-.002-3.583.52-5.203 1.425z" fill="#ff4b55"/><path d="m286.897 271.449h-61.793c-.407 0-.781-.224-.973-.582-.192-.36-.17-.796.055-1.133l30.897-46.345c.409-.612 1.427-.612 1.836 0l30.897 46.345c.225.339.247.774.055 1.133-.193.358-.567.582-.974.582zm-59.732-2.207h57.671l-28.836-43.251z" fill="#ffe15a"/><path d="m256 214.07c-.61 0-1.103-.493-1.103-1.103v-4.414c0-.61.493-1.103 1.103-1.103s1.103.493 1.103 1.103v4.414c0 .61-.493 1.103-1.103 1.103z" fill="#ffe15a"/><path d="m258.207 214.07h-4.414c-.61 0-1.103-.493-1.103-1.103s.493-1.103 1.103-1.103h4.414c.61 0 1.103.493 1.103 1.103s-.493 1.103-1.103 1.103z" fill="#ffe15a"/><path d="m256 293.518c-.079 0-.161-.009-.239-.025-1.08-.242-4.684-1.106-5.747-2.159-1.35-1.341-1.357-3.528-.019-4.879.65-.653 1.514-1.015 2.435-1.017h.012c.917 0 1.779.355 2.43 1.002 1.063 1.056 1.954 4.651 2.202 5.728.085.369-.025.757-.292 1.026-.208.209-.491.324-.782.324zm-3.558-5.875c-.294.097-.647.131-.882.366-.482.484-.479 1.273.008 1.757.267.26 1.46.712 2.89 1.119-.418-1.425-.877-2.614-1.141-2.881l.777-.782-.778.782c-.234-.234-.544-.361-.874-.361z" fill="#41479b"/><path d="m256 293.518c-.291 0-.574-.115-.783-.326-.266-.269-.377-.658-.292-1.026.248-1.078 1.14-4.672 2.202-5.728.654-.649 1.433-.943 2.442-1.002.921.002 1.785.364 2.434 1.017 1.341 1.352 1.332 3.539-.017 4.877-1.064 1.056-4.668 1.92-5.748 2.162-.077.017-.159.026-.238.026zm1.906-6.297.777.782c-.264.267-.723 1.457-1.141 2.881 1.43-.407 2.623-.857 2.891-1.121.484-.481.488-1.269.006-1.754-.233-.235-.544-.366-.876-.366h-.004c-.33 0-.64.127-.874.36zm0 0h.022z" fill="#41479b"/><path d="m251.586 300.139c-.61 0-1.103-.493-1.103-1.103 0-5.038 4.819-7.505 5.024-7.608.548-.274 1.205-.05 1.478.491.274.543.055 1.205-.487 1.481-.039.02-3.807 1.976-3.807 5.635-.001.611-.495 1.104-1.105 1.104z" fill="#41479b"/><path d="m260.414 300.139c-.61 0-1.103-.493-1.103-1.103 0-3.659-3.768-5.617-3.807-5.635-.542-.276-.76-.938-.487-1.481.275-.541.931-.765 1.478-.491.205.104 5.024 2.569 5.024 7.608-.002.609-.495 1.102-1.105 1.102z" fill="#41479b"/></svg>