<svg enable-background="new 0 0 512.001 512.001" viewBox="0 0 512.001 512.001" xmlns="http://www.w3.org/2000/svg"><path d="m512 200.093h-512v-102.989c0-4.875 3.953-8.828 8.828-8.828h494.345c4.875 0 8.828 3.953 8.828 8.828z" fill="#ff4b55"/><path d="m503.172 423.725h-494.344c-4.875 0-8.828-3.953-8.828-8.828v-102.988h512v102.988c0 4.876-3.953 8.828-8.828 8.828z" fill="#464655"/><path d="m0 200.091h512v111.81h-512z" fill="#f5f5f5"/><g fill="#73af00"><path d="m150.03 223.315 7.36 22.068 23.262.18c3.011.023 4.26 3.866 1.837 5.656l-18.713 13.82 7.017 22.179c.908 2.871-2.361 5.247-4.811 3.496l-18.925-13.527-18.925 13.527c-2.451 1.751-5.719-.625-4.811-3.496l7.017-22.179-18.713-13.82c-2.423-1.789-1.174-5.633 1.837-5.656l23.262-.18 7.36-22.068c.952-2.857 4.993-2.857 5.946 0z"/><path d="m367.917 223.315 7.36 22.068 23.262.18c3.011.023 4.26 3.866 1.837 5.656l-18.713 13.82 7.017 22.179c.908 2.871-2.361 5.247-4.811 3.496l-18.925-13.527-18.925 13.527c-2.451 1.751-5.72-.625-4.811-3.496l7.017-22.179-18.713-13.82c-2.423-1.789-1.174-5.633 1.837-5.656l23.262-.18 7.36-22.068c.952-2.857 4.993-2.857 5.946 0z"/></g></svg>