<svg enable-background="new 0 0 512.001 512.001" viewBox="0 0 512.001 512.001" xmlns="http://www.w3.org/2000/svg"><path d="m0 361.931h512v52.966c0 4.875-3.953 8.828-8.828 8.828h-494.344c-4.875 0-8.828-3.953-8.828-8.828z" fill="#4173cd"/><path d="m8.828 88.276h494.345c4.875 0 8.828 3.953 8.828 8.828v52.966h-512.001v-52.967c0-4.875 3.953-8.827 8.828-8.827z" fill="#4173cd"/><path d="m0 150.07h512v211.86h-512z" fill="#ff4b55"/><path d="m0 141.24h512v17.655h-512z" fill="#ffe15a"/><path d="m0 353.1h512v17.655h-512z" fill="#ffe15a"/><path d="m448.897 264.519h-386.163c-2.621 0-4.745-2.124-4.745-4.745v-1.501c0-2.621 2.124-4.745 4.745-4.745h386.163c2.621 0 4.745 2.124 4.745 4.745v1.501c0 2.62-2.124 4.745-4.745 4.745z" fill="#ffe15a"/><path d="m373.962 242.538 19.233-8.243 19.233 8.243-19.233 8.243z" fill="#f5f5f5"/><path d="m378.695 239.027h-282.239c-1.939 0-3.511 1.571-3.511 3.511 0 1.939 1.571 3.511 3.511 3.511h282.238c1.939 0 3.511-1.572 3.511-3.511s-1.572-3.511-3.51-3.511z" fill="#ffe15a"/><path d="m393.959 223.305 19.233-8.243 19.233 8.243-19.233 8.243z" fill="#f5f5f5"/><path d="m398.69 219.794h-282.238c-1.939 0-3.511 1.571-3.511 3.511 0 1.939 1.571 3.511 3.511 3.511h282.238c1.939 0 3.511-1.572 3.511-3.511s-1.571-3.511-3.511-3.511z" fill="#ffe15a"/><path d="m255.816 187.586c-48.808 0-91.39 27.639-114.197 68.69 22.806 41.05 65.389 68.69 114.197 68.69s91.39-27.639 114.197-68.69c-22.806-41.051-65.39-68.69-114.197-68.69z" fill="#f5f5f5"/><path d="m141.62 256.276c22.806 41.05 65.389 68.69 114.197 68.69 8.15 0 16.106-.836 23.846-2.312-5.909-12.971-26.691-12.949-27.967-17.837-1.374-5.266 16.943-4.121 20.149-8.472 3.206-4.35-17.401-6.182-18.317-10.532-.916-4.351 8.243-7.327 9.846-14.196s5.266-8.929 8.013-13.05c2.748-4.121-4.579-5.495-6.411-19.233s-12.594-15.57-17.859-26.788c-5.267-11.219 3.206-19.462 8.701-24.957-48.809-.003-91.392 27.636-114.198 68.687z" fill="#464655"/><g fill="#f5f5f5"><path d="m184.37 231.55h5.495v21.981h-5.495z"/><path d="m195.37 231.55h5.495v21.981h-5.495z"/><path d="m206.36 231.55h5.495v21.981h-5.495z"/><path d="m217.35 231.55h5.495v21.981h-5.495z"/><path d="m228.34 231.55h5.495v21.981h-5.495z"/><path d="m239.33 231.55h5.495v21.981h-5.495z"/><path d="m184.37 264.52h5.495v21.981h-5.495z"/><path d="m195.37 264.52h5.495v21.981h-5.495z"/><path d="m206.36 264.52h5.495v21.981h-5.495z"/><path d="m217.35 264.52h5.495v21.981h-5.495z"/><path d="m228.34 264.52h5.495v21.981h-5.495z"/><path d="m239.33 264.52h5.495v21.981h-5.495z"/></g><path d="m266.8 231.55h5.495v21.981h-5.495z" fill="#464655"/><path d="m277.79 231.55h5.495v21.981h-5.495z" fill="#464655"/><path d="m288.78 231.55h5.495v21.981h-5.495z" fill="#464655"/><path d="m299.77 231.55h5.495v21.981h-5.495z" fill="#464655"/><path d="m310.76 231.55h5.495v21.981h-5.495z" fill="#464655"/><path d="m321.75 231.55h5.495v21.981h-5.495z" fill="#464655"/><path d="m266.8 264.52h5.495v21.981h-5.495z" fill="#464655"/><path d="m277.79 264.52h5.495v21.981h-5.495z" fill="#464655"/><path d="m288.78 264.52h5.495v21.981h-5.495z" fill="#464655"/><path d="m299.77 264.52h5.495v21.981h-5.495z" fill="#464655"/><path d="m310.76 264.52h5.495v21.981h-5.495z" fill="#464655"/><path d="m321.75 264.52h5.495v21.981h-5.495z" fill="#464655"/><path d="m425.386 252.67c-4.401 10.223-16.925 11.426-9.985 37.486l3.554-3.608s3.723 9.823 12.693 16.438c0 0 11-9.222 11.847-23.854l4.569 2.005c0-.003-2.2-26.663-22.678-28.467z" fill="#245dbd"/><path d="m441.633 273.618c-.352 0-.701-.163-.966-.482-4.31-5.199-9.8-6.866-9.853-6.884-.725-.213-1.169-1.084-.989-1.942.18-.852.915-1.385 1.636-1.172.254.075 6.27 1.886 11.136 7.755.524.627.515 1.647-.015 2.268-.264.307-.605.457-.949.457z" fill="#ff4b55"/><path d="m438.531 285.746c-.405 0-.807-.213-1.074-.627-3.197-4.924-6.823-7.605-6.86-7.63-.638-.463-.833-1.453-.441-2.211.394-.751 1.227-.983 1.865-.52.167.119 4.088 3.026 7.584 8.407.455.702.344 1.71-.248 2.249-.246.225-.538.332-.826.332z" fill="#ff4b55"/><path d="m431.426 299.245c-.076 0-.153-.007-.233-.025-.735-.15-1.233-.978-1.106-1.848.534-3.671.087-9.691-.646-12.798-.201-.852.22-1.736.939-1.98.727-.232 1.468.263 1.668 1.116.828 3.508 1.312 10.055.708 14.201-.112.783-.685 1.334-1.33 1.334z" fill="#ff4b55"/><path d="m421.903 284.436c-.386 0-.769-.194-1.036-.57-.481-.676-.409-1.692.161-2.261.034-.031 3.49-3.54 4.393-8.394.161-.864.878-1.409 1.613-1.221.729.188 1.193 1.046 1.032 1.911-1.106 5.939-5.122 9.992-5.294 10.161-.255.249-.562.374-.869.374z" fill="#ff4b55"/><path d="m418.143 274.175c-.455 0-.899-.269-1.155-.765-.392-.751-.193-1.741.445-2.205.051-.038 4.961-3.652 6.484-7.598.309-.814 1.119-1.172 1.795-.796.68.37.979 1.322.669 2.124-1.869 4.842-7.302 8.833-7.531 9.002-.224.163-.467.238-.707.238z" fill="#ff4b55"/><path d="m82.285 256.11c-3.679 8.548-14.152 9.555-8.35 31.345l2.972-3.017s3.113 8.213 10.614 13.745c0 0 9.198-7.711 9.906-19.947l3.821 1.676c0 .001-1.839-22.292-18.963-23.802z" fill="#245dbd"/><path d="m95.871 273.628c-.295 0-.586-.136-.807-.404-3.604-4.348-8.194-5.741-8.239-5.757-.606-.178-.978-.906-.826-1.624.15-.713.765-1.158 1.368-.98.212.063 5.242 1.577 9.311 6.485.438.524.431 1.377-.013 1.896-.221.258-.507.384-.794.384z" fill="#ff4b55"/><path d="m93.277 283.768c-.339 0-.674-.178-.898-.524-2.674-4.117-5.705-6.359-5.736-6.38-.533-.387-.696-1.215-.37-1.849.33-.629 1.026-.822 1.559-.435.139.099 3.418 2.53 6.342 7.03.381.587.288 1.43-.207 1.88-.206.189-.45.278-.69.278z" fill="#ff4b55"/><path d="m87.335 295.057c-.064 0-.128-.006-.194-.021-.615-.126-1.031-.818-.925-1.545.447-3.07.073-8.104-.54-10.701-.168-.713.183-1.451.785-1.655.608-.194 1.227.22 1.395.932.692 2.933 1.097 8.407.593 11.875-.095.653-.575 1.115-1.114 1.115z" fill="#ff4b55"/><path d="m79.372 282.674c-.323 0-.643-.162-.867-.477-.403-.566-.343-1.415.135-1.891.029-.026 2.919-2.959 3.672-7.019.135-.723.734-1.178 1.348-1.022.61.157.998.875.863 1.598-.925 4.966-4.284 8.355-4.427 8.497-.211.209-.467.314-.724.314z" fill="#ff4b55"/><path d="m76.228 274.093c-.381 0-.751-.225-.967-.639-.328-.629-.161-1.457.372-1.844.042-.031 4.148-3.054 5.422-6.354.258-.681.936-.98 1.502-.665.568.309.818 1.106.559 1.775-1.564 4.049-6.105 7.385-6.297 7.527-.186.137-.39.2-.591.2z" fill="#ff4b55"/></svg>