<svg enable-background="new 0 0 512.001 512.001" viewBox="0 0 512.001 512.001" xmlns="http://www.w3.org/2000/svg"><path d="m503.172 423.724h-494.344c-4.875 0-8.828-3.953-8.828-8.828v-317.792c0-4.875 3.953-8.828 8.828-8.828h494.345c4.875 0 8.828 3.953 8.828 8.828v317.792c-.001 4.876-3.954 8.828-8.829 8.828z" fill="#41479b"/><path d="m247.172 88.276h-15.333l-81.77 53.573v-53.573h-44.138v53.573l-81.77-53.573h-15.333c-4.875 0-8.828 3.953-8.828 8.828v7.002l70.155 45.963h-70.155v44.138h70.155l-70.155 45.964v7.001c0 4.875 3.953 8.828 8.828 8.828h15.333l81.77-53.573v53.573h44.138v-53.573l81.769 53.573h15.333c4.875 0 8.828-3.953 8.828-8.828v-7.002l-70.154-45.963h70.154v-44.138h-70.155l70.155-45.963v-7.002c0-4.875-3.951-8.828-8.827-8.828z" fill="#f5f5f5"/><g fill="#ff4b55"><path d="m255.999 158.897h-114.758v-70.621h-26.483v70.621h-114.758v26.482h114.758v70.621h26.483v-70.621h114.758z"/><path d="m97.103 150.069-92.896-60.301c-2.472 1.565-4.207 4.193-4.207 7.336v.458l80.889 52.507z"/><path d="m166.283 150.069 88.374-57.366c-1.536-2.599-4.246-4.427-7.485-4.427h-1.909l-95.194 61.793z"/><path d="m89.474 194.207-88.205 57.256c1.521 2.662 4.273 4.537 7.559 4.537h1.665l95.195-61.793z"/><path d="m255.859 247.867-82.666-53.659h-16.213l93.873 60.934c2.813-1.305 4.741-4.04 5.006-7.275z"/></g><path d="m344.072 205.977c-1.065 0-1.928.863-1.928 1.928v32.773c0 65.548 46.269 77.114 46.269 77.114s46.269-11.567 46.269-77.114v-32.773c0-1.065-.863-1.928-1.928-1.928z" fill="#ffe15a"/><path d="m429.863 210.797v29.881c0 55.751-34.461 69.813-41.448 72.089-7.026-2.291-41.451-16.369-41.451-72.089v-29.881zm2.891-4.82h-88.682c-1.065 0-1.928.863-1.928 1.928v32.773c0 65.548 46.269 77.114 46.269 77.114s46.269-11.567 46.269-77.114v-32.773c0-1.065-.863-1.928-1.928-1.928z" fill="#f5f5f5"/><path d="m393.588 267.04h-9.863s-7.954 7.954-9.778 25.426c-.059.557.167 1.121.608 1.468 1.673 1.311 6.372 4.339 14.101 4.339s12.428-3.028 14.101-4.339c.441-.345.665-.91.608-1.468-1.823-17.472-9.777-25.426-9.777-25.426z" fill="#73af00"/><path d="m393.588 265.396h-9.863v-8.218c0-2.712 2.219-4.931 4.931-4.931 2.712 0 4.931 2.219 4.931 4.931v8.218z" fill="#ff4b55"/><path d="m393.588 268.684h-9.863c-.908 0-1.644-.736-1.644-1.644 0-.908.736-1.644 1.644-1.644h9.863c.908 0 1.644.736 1.644 1.644-.001.908-.737 1.644-1.644 1.644z" fill="#ff4b55"/><path d="m426.463 232.339c-.291 0-4.579.02-9.041.787v-2.57c3.765-1.718 7.454-2.607 7.517-2.622.441-.104.716-.546.612-.988-.105-.441-.546-.717-.988-.612-.248.057-3.561.854-7.171 2.425-.059-.985-.401-1.889-.956-2.635 2.946-2.28 5.455-3.729 5.502-3.755.394-.225.532-.726.308-1.121-.226-.395-.728-.532-1.121-.308-.199.114-2.831 1.632-5.887 4.019-.786-.53-1.731-.839-2.748-.839-1.057 0-2.033.341-2.836.909.843-4.23 2.575-6.061 2.599-6.084.318-.321.317-.84-.003-1.159-.321-.321-.841-.321-1.162 0-.098.098-1.695 1.747-2.707 5.452-1.012-3.706-2.609-5.355-2.707-5.452-.319-.319-.835-.319-1.158-.001-.321.318-.324.838-.008 1.161.023.023 1.756 1.855 2.599 6.084-.803-.568-1.779-.909-2.836-.909-1.016 0-1.962.31-2.748.839-3.055-2.388-5.687-3.905-5.887-4.019-.395-.225-.897-.087-1.121.308-.225.395-.087.896.308 1.121.046.026 2.556 1.474 5.503 3.754-.556.747-.897 1.651-.957 2.636-3.609-1.572-6.923-2.368-7.171-2.425-.444-.106-.884.171-.988.612-.104.442.171.885.612.988.063.014 3.752.903 7.517 2.622v2.57c-4.461-.768-8.749-.787-9.041-.787-.454 0-.822.367-.822.822 0 .454.367.822.822.822.071 0 4.564.018 9.041.812v2.659c-2.466-.074-5.217.271-7.765 1.547-.406.203-.57.696-.367 1.102.145.288.435.455.736.455.124 0 .248-.028.366-.087 2.269-1.133 4.769-1.429 7.029-1.353v10.17c0 1.241-.124 2.489-.366 3.708l-1.261 6.304c-.089.446.2.878.644.967.054.011.108.017.162.017.384 0 .727-.269.806-.661l1.261-6.304c.265-1.325.399-2.68.399-4.03v-10.048c1.233.138 2.34.36 3.231.583l.627 8.14c.078 1.015.586 1.891 1.327 2.486l-2.666 3.998c-1.428 2.143.107 5.012 2.682 5.012h4.391c2.574 0 4.11-2.87 2.682-5.012l-2.666-3.998c.742-.595 1.249-1.472 1.327-2.486l.626-8.14c.89-.223 1.998-.445 3.231-.583v10.047c0 1.35.134 2.705.399 4.03l1.261 6.304c.078.391.421.661.806.661.053 0 .107-.004.162-.017.445-.089.734-.522.644-.967l-1.261-6.304c-.243-1.218-.366-2.465-.366-3.708v-10.172c2.26-.076 4.761.22 7.029 1.353.118.058.243.087.366.087.301 0 .591-.167.736-.455.203-.406.039-.899-.367-1.102-2.547-1.273-5.298-1.619-7.765-1.546v-2.66c4.477-.794 8.97-.812 9.041-.812.455 0 .822-.369.822-.822.003-.453-.365-.82-.819-.82zm-10.685 1.102c-.982.213-1.949.466-2.86.769-.017-.324-.064-.638-.145-.942.911-.704 1.935-1.343 3.006-1.909v2.082zm0-4.39v.455c-1.302.647-2.584 1.397-3.732 2.248-.238-.326-.513-.619-.829-.871 1.229-1.362 2.596-2.624 3.941-3.737.388.537.62 1.193.62 1.905zm-3.287-3.288c.49 0 .951.115 1.369.308-1.42 1.193-2.86 2.55-4.149 4.022-.168-.052-.333-.103-.509-.135v-.087c0-.374.013-.729.026-1.082.137-1.688 1.539-3.026 3.263-3.026zm-8.219 0c1.724 0 3.126 1.337 3.261 3.027.013.353.026.707.026 1.082v.087c-.175.032-.341.083-.509.135-1.289-1.472-2.729-2.829-4.149-4.022.42-.194.881-.309 1.371-.309zm-3.287 3.288c0-.713.233-1.368.62-1.907 1.345 1.113 2.711 2.376 3.94 3.737-.316.252-.59.546-.829.872-1.148-.851-2.429-1.601-3.732-2.248zm0 2.309c1.07.566 2.094 1.205 3.006 1.909-.082.305-.129.618-.145.941-.913-.303-1.878-.556-2.86-.769v-2.081zm0 6.209v-2.441c1.03.233 2.024.515 2.935.854l.162 2.105c-.894-.208-1.944-.398-3.097-.518zm14.793.001c-1.153.12-2.204.31-3.097.518l.162-2.105c.911-.339 1.906-.62 2.935-.854z" fill="#d35a10"/><path d="m374.534 254.529h-3.692l-14.109-12.541c-1.542-1.369-2.194-3.482-1.694-5.483l3.934-15.737c.348-1.393 2.082-1.873 3.096-.857l6.385 6.385c.346.346.815.541 1.305.541h4.773v27.693z" fill="#ffa033"/><path d="m371.888 223.051-2.265 10.197c-.41 1.848-.341 3.772.203 5.586l4.708 15.695h3.692l4.708-15.695c.544-1.814.615-3.737.203-5.586l-2.265-10.197c-.468-2.103-2.333-3.599-4.488-3.599h-.01c-2.154-.001-4.02 1.496-4.486 3.599z" fill="#ff9480"/><path d="m376.38 223.144c-1.02 0-1.846.826-1.846 1.846v29.539h3.692v-29.539c0-1.02-.827-1.846-1.846-1.846z" fill="#ffa0e4"/></svg>