<svg enable-background="new 0 0 512.001 512.001" viewBox="0 0 512.001 512.001" xmlns="http://www.w3.org/2000/svg"><path d="m512 155.367h-512v-58.263c0-4.875 3.953-8.828 8.828-8.828h494.345c4.875 0 8.828 3.953 8.828 8.828z" fill="#73af00"/><path d="m0 222.461h512v67.09h-512z" fill="#73af00"/><path d="m0 155.371h512v67.09h-512z" fill="#ffe15a"/><path d="m503.172 423.725h-494.344c-4.875 0-8.828-3.953-8.828-8.828v-58.262h512v58.262c0 4.876-3.953 8.828-8.828 8.828z" fill="#73af00"/><path d="m0 289.551h512v67.09h-512z" fill="#ffe15a"/><path d="m194.207 289.546h-185.379c-4.875 0-8.828-3.953-8.828-8.828v-183.614c0-4.875 3.953-8.828 8.828-8.828h185.379c4.875 0 8.828 3.953 8.828 8.828v183.614c-.001 4.875-3.953 8.828-8.828 8.828z" fill="#ff4b55"/><path d="m99.335 135.638-12.758 38.252-40.322.312c-2.21.018-3.127 2.838-1.348 4.151l32.438 23.954-12.163 38.446c-.666 2.108 1.734 3.851 3.531 2.566l32.806-23.448 32.806 23.448c1.799 1.286 4.199-.458 3.531-2.566l-12.163-38.445 32.438-23.954c1.779-1.313.862-4.135-1.348-4.151l-40.322-.312-12.761-38.252c-.7-2.099-3.666-2.099-4.365-.001z" fill="#f5f5f5"/></svg>