<svg enable-background="new 0 0 512 512" viewBox="0 0 512 512" xmlns="http://www.w3.org/2000/svg"><path d="m503.2 423.7h-494.4c-4.9 0-8.8-4-8.8-8.8v-317.8c0-4.9 4-8.8 8.8-8.8h494.3c4.9 0 8.8 4 8.8 8.8v317.8c.1 4.9-3.9 8.8-8.7 8.8z" fill="#f5f5f5"/><path d="m503.2 423.7h-494.4c-4.9 0-8.8-4-8.8-8.8v-44.1h512v44.1c0 4.9-4 8.8-8.8 8.8z" fill="#ff4b55"/><path d="m8.8 88.3h494.3c4.9 0 8.8 4 8.8 8.8v44.1h-511.9v-44.1c0-4.9 4-8.8 8.8-8.8z" fill="#ff4b55"/><path d="m0 194.2h512v123.6h-512z" fill="#41479b"/></svg>