<svg enable-background="new 0 0 512.001 512.001" viewBox="0 0 512.001 512.001" xmlns="http://www.w3.org/2000/svg"><path d="m503.172 423.721h-494.344c-4.875 0-8.828-3.953-8.828-8.828v-317.792c0-4.875 3.953-8.828 8.828-8.828h494.345c4.875 0 8.828 3.953 8.828 8.828v317.792c-.001 4.877-3.954 8.828-8.829 8.828z" fill="#73af00"/><path d="m70.62 88.277h88.28v335.45h-88.28z" fill="#ff4b55"/><path d="m150.069 126.526-17.655 14.713h-35.311l-17.655-14.713v-14.713l17.655-14.712h35.311l17.655 14.712z" fill="#f5f5f5"/><path d="m150.069 250.112-17.655 14.714h-35.311l-17.655-14.714v-14.712l17.655-14.713h35.311l17.655 14.713z" fill="#73af00"/><path d="m150.069 188.319-17.655 14.713h-35.311l-17.655-14.713v-14.712l17.655-14.713h35.311l17.655 14.713z" fill="#73af00"/><path d="m150.069 311.905-17.655 14.713h-35.311l-17.655-14.713v-14.711l17.655-14.714h35.311l17.655 14.714z" fill="#73af00"/><g fill="#ffb400"><path d="m70.621 132.411 17.655 17.655-17.655 17.655z"/><path d="m158.896 167.721-17.655-17.655 17.655-17.655z"/><path d="m70.621 194.204 17.655 17.655-17.655 17.655z"/><path d="m158.896 229.514-17.655-17.655 17.655-17.655z"/><path d="m70.621 255.997 17.655 17.655-17.655 17.655z"/><path d="m158.896 291.307-17.655-17.655 17.655-17.655z"/><path d="m70.621 317.79 17.655 17.655-17.655 17.655z"/><path d="m158.896 353.1-17.655-17.655 17.655-17.655z"/><path d="m70.621 88.273h17.655l-17.655 17.655z"/><path d="m158.896 105.928-17.655-17.655h17.655z"/><path d="m110.34 158.897h8.828v44.14h-8.828z"/></g><path d="m97.1 176.547h35.31v8.828h-35.31z" fill="#ff4b55"/><path d="m141.241 166.25-8.827-7.356v44.138l8.827-7.357z" fill="#ffb400"/><path d="m88.276 195.675 8.827 7.357v-44.137l-8.827 7.355z" fill="#ffb400"/><path d="m114.758 97.101h-17.654l-17.656 14.712v7.357h35.31z" fill="#ffb400"/><path d="m114.758 141.239h17.656l17.655-14.713v-7.356h-35.311z" fill="#ffb400"/><path d="m114.758 132.411-17.655-13.189 17.655-13.294 17.656 13.294z" fill="#ff4b55"/><path d="m114.758 132.411 17.656-13.189-.069-.052h-17.587z" fill="#73af00"/><path d="m114.758 119.17v-13.242l-17.585 13.242z" fill="#73af00"/><path d="m97.1 229.517h35.31v26.483h-35.31z" fill="#ff4b55"/><path d="m132.41 238.337h8.828v8.828h-8.828z" fill="#ffb400"/><path d="m110.34 238.337h8.828v8.828h-8.828z" fill="#f5f5f5"/><path d="m110.34 291.307h8.828v8.828h-8.828z" fill="#ff4b55"/><path d="m123.59 300.138h8.828v8.828h-8.828z" fill="#ffb400"/><path d="m97.1 300.138h8.828v8.828h-8.828z" fill="#ffb400"/><path d="m110.34 308.957h8.828v8.828h-8.828z" fill="#ff4b55"/><path d="m88.28 238.337h8.828v8.828h-8.828z" fill="#ffb400"/><path d="m150.069 373.698-17.655 14.713h-35.311l-17.655-14.713v-14.711l17.655-14.714h35.311l17.655 14.714z" fill="#f5f5f5"/><path d="m114.758 344.273h-17.654l-17.656 14.713v7.356h35.31z" fill="#ffb400"/><path d="m114.758 388.411h17.656l17.655-14.713v-7.356h-35.311z" fill="#ffb400"/><path d="m132.414 370.755-17.656 8.828-17.655-8.828v-8.827l17.655-8.828 17.656 8.828z" fill="#ff4b55"/><path d="m280.01 136.34c-.94-.462-1.791.761-1.028 1.48 9.99 9.427 16.303 22.666 16.303 37.433 0 29.007-23.316 52.279-51.986 52.279-5.292 0-10.389-.825-15.197-2.328-.996-.311-1.641 1.025-.783 1.621 8.382 5.827 18.485 9.31 29.514 9.31 29.049 0 52.787-23.275 52.787-52.703-.001-20.682-12.14-38.503-29.61-47.092z" fill="#f5f5f5"/><path d="m208.173 170.4-2.159 6.109 5.08 4.021c.658.521.275 1.579-.564 1.557l-6.477-.167-2.254 6.074c-.292.787-1.417.749-1.655-.055l-1.843-6.211-6.474-.267c-.839-.034-1.15-1.116-.459-1.591l5.338-3.672-1.747-6.24c-.226-.808.706-1.439 1.372-.928l5.142 3.942 5.395-3.59c.696-.465 1.584.227 1.305 1.018z" fill="#f5f5f5"/><path d="m234.407 183.65-2.159 6.109 5.08 4.021c.658.521.275 1.579-.564 1.557l-6.477-.167-2.254 6.074c-.292.787-1.417.749-1.655-.055l-1.843-6.211-6.474-.267c-.839-.034-1.15-1.116-.459-1.591l5.338-3.672-1.747-6.24c-.226-.808.706-1.439 1.372-.928l5.142 3.942 5.395-3.59c.697-.464 1.584.228 1.305 1.018z" fill="#f5f5f5"/><path d="m234.142 156.355-2.159 6.109 5.08 4.021c.658.521.275 1.579-.564 1.557l-6.477-.167-2.254 6.074c-.292.787-1.417.749-1.655-.055l-1.843-6.211-6.474-.267c-.839-.034-1.15-1.116-.459-1.591l5.338-3.672-1.747-6.24c-.226-.808.706-1.439 1.372-.928l5.142 3.942 5.395-3.59c.697-.464 1.585.228 1.305 1.018z" fill="#f5f5f5"/><path d="m235.036 130.01-2.159 6.109 5.08 4.021c.658.521.275 1.579-.564 1.557l-6.477-.167-2.254 6.074c-.292.787-1.417.749-1.655-.055l-1.843-6.211-6.474-.267c-.839-.034-1.15-1.116-.459-1.591l5.338-3.672-1.747-6.24c-.226-.808.706-1.439 1.372-.928l5.142 3.942 5.395-3.59c.696-.465 1.584.227 1.305 1.018z" fill="#f5f5f5"/><path d="m260.741 143.26-2.159 6.109 5.08 4.021c.658.521.275 1.579-.564 1.557l-6.477-.167-2.254 6.074c-.292.787-1.417.749-1.655-.055l-1.843-6.211-6.474-.267c-.839-.034-1.15-1.116-.459-1.591l5.338-3.672-1.747-6.24c-.226-.808.706-1.439 1.372-.928l5.142 3.942 5.395-3.59c.696-.465 1.584.227 1.305 1.018z" fill="#f5f5f5"/></svg>