<svg enable-background="new 0 0 512.001 512.001" viewBox="0 0 512.001 512.001" xmlns="http://www.w3.org/2000/svg"><path d="m503.172 423.725h-494.344c-4.875 0-8.828-3.953-8.828-8.828v-317.793c0-4.875 3.953-8.828 8.828-8.828h494.345c4.875 0 8.828 3.953 8.828 8.828v317.793c-.001 4.876-3.954 8.828-8.829 8.828z" fill="#ff4b55"/><path d="m257.002 167.725c48.718 0 88.205 39.594 88.205 88.276 0 48.823-39.487 88.276-88.205 88.276-48.823 0-88.346-39.453-88.346-88.276-.001-48.682 39.523-88.276 88.346-88.276" fill="#f5f5f5"/><g fill="#ff4b55"><path d="m273.043 305.467c-27.327 0-49.493-22.165-49.493-49.461 0-27.23 22.166-49.395 49.493-49.395 9.295 0 17.981 2.604 25.405 7.102 1.112.674 2.282-.782 1.355-1.695-11.138-10.974-26.389-17.771-43.235-17.771-34.2 0-61.892 27.692-61.892 61.761 0 34.135 27.691 61.825 61.892 61.825 16.838 0 32.083-6.792 43.219-17.763.927-.913-.243-2.369-1.355-1.696-7.422 4.494-16.102 7.093-25.389 7.093z"/><path d="m268.52 221.388 13.644 18.526 21.945-6.912c2.841-.895 5.186 2.342 3.452 4.762l-13.402 18.701 13.355 18.735c1.729 2.425-.625 5.656-3.464 4.754l-21.928-6.968-13.692 18.49c-1.772 2.395-5.572 1.154-5.591-1.825l-.149-23.007-21.816-7.307c-2.825-.946-2.819-4.943.008-5.881l21.835-7.252.207-23.007c.027-2.978 3.83-4.208 5.596-1.809z"/></g></svg>