<svg enable-background="new 0 0 512.001 512.001" viewBox="0 0 512.001 512.001" xmlns="http://www.w3.org/2000/svg"><path d="m503.172 423.724h-494.344c-4.875 0-8.828-3.953-8.828-8.828v-317.792c0-4.875 3.953-8.828 8.828-8.828h494.345c4.875 0 8.828 3.953 8.828 8.828v317.792c-.001 4.876-3.954 8.828-8.829 8.828z" fill="#ff4b55"/><path d="m194.206 256h-185.378c-4.875 0-8.828-3.953-8.828-8.828v-150.068c0-4.875 3.953-8.828 8.828-8.828h185.379c4.875 0 8.828 3.953 8.828 8.828v150.069c-.001 4.876-3.954 8.827-8.829 8.827z" fill="#f5f5f5"/><path d="m167.724 150.069h-44.138v-44.138h-44.138v44.138h-44.138v44.138h44.138v44.138h44.138v-44.138h44.138z" fill="#ff4b55"/></svg>