<svg enable-background="new 0 0 512.001 512.001" viewBox="0 0 512.001 512.001" xmlns="http://www.w3.org/2000/svg"><path d="m503.172 423.725h-494.344c-4.875 0-8.828-3.953-8.828-8.828v-317.793c0-4.875 3.953-8.828 8.828-8.828h494.345c4.875 0 8.828 3.953 8.828 8.828v317.793c-.001 4.876-3.954 8.828-8.829 8.828z" fill="#ff4b55"/><path d="m8.828 88.277c-2.387 0-4.535.967-6.124 2.506l359.228 332.942h26.483l-361.932-335.448z" fill="#f5f5f5"/><path d="m150.069 88.277h-26.483l361.931 335.448h17.655c2.387 0 4.535-.967 6.124-2.506z" fill="#f5f5f5"/><path d="m26.483 88.277 361.931 335.448h97.103l-361.931-335.448z" fill="#464655"/></svg>