<svg enable-background="new 0 0 512.001 512.001" viewBox="0 0 512.001 512.001" xmlns="http://www.w3.org/2000/svg"><path d="m503.172 423.724h-494.344c-4.875 0-8.828-3.953-8.828-8.828v-317.792c0-4.875 3.953-8.828 8.828-8.828h494.345c4.875 0 8.828 3.953 8.828 8.828v317.792c-.001 4.876-3.954 8.828-8.829 8.828z" fill="#3cc8ff"/><path d="m247.172 256h-238.344c-4.875 0-8.828-3.953-8.828-8.828v-150.068c0-4.875 3.953-8.828 8.828-8.828h238.344c4.875 0 8.828 3.953 8.828 8.828v150.069c-.001 4.876-3.952 8.827-8.828 8.827z" fill="#41479b"/><path d="m247.172 88.276h-15.333l-81.77 53.573v-53.573h-44.138v53.573l-81.77-53.573h-15.333c-4.875 0-8.828 3.953-8.828 8.828v7.002l70.155 45.963h-70.155v44.138h70.155l-70.155 45.964v7.001c0 4.875 3.953 8.828 8.828 8.828h15.333l81.77-53.573v53.573h44.138v-53.573l81.769 53.573h15.333c4.875 0 8.828-3.953 8.828-8.828v-7.002l-70.154-45.963h70.154v-44.138h-70.155l70.155-45.963v-7.002c0-4.875-3.951-8.828-8.827-8.828z" fill="#f5f5f5"/><path d="m255.999 158.897h-114.758v-70.621h-26.483v70.621h-114.758v26.482h114.758v70.621h26.483v-70.621h114.758z" fill="#ff4b55"/><path d="m97.103 150.069-92.896-60.301c-2.472 1.565-4.207 4.193-4.207 7.336v.458l80.889 52.507z" fill="#ff4b55"/><path d="m166.283 150.069 88.374-57.366c-1.536-2.599-4.246-4.427-7.485-4.427h-1.909l-95.194 61.793z" fill="#ff4b55"/><path d="m89.474 194.207-88.205 57.256c1.521 2.662 4.273 4.537 7.559 4.537h1.665l95.195-61.793z" fill="#ff4b55"/><path d="m255.859 247.867-82.666-53.659h-16.213l93.873 60.934c2.813-1.305 4.741-4.04 5.006-7.275z" fill="#ff4b55"/><g fill="#ffe15a"><path d="m284.332 362.783 4.297 12.884 13.581.105c1.758.013 2.487 2.258 1.073 3.302l-10.925 8.067 4.097 12.949c.531 1.676-1.378 3.063-2.809 2.04l-11.049-7.897-11.049 7.897c-1.43 1.023-3.339-.364-2.809-2.04l4.097-12.949-10.925-8.067c-1.415-1.045-.685-3.288 1.073-3.302l13.581-.105 4.297-12.884c.553-1.668 2.913-1.668 3.47 0z"/><path d="m409.33 265.572 4.297 12.884 13.581.105c1.758.013 2.487 2.258 1.073 3.302l-10.925 8.067 4.097 12.949c.531 1.676-1.378 3.063-2.809 2.04l-11.049-7.897-11.049 7.897c-1.43 1.023-3.339-.364-2.809-2.04l4.097-12.949-10.925-8.067c-1.415-1.045-.685-3.288 1.073-3.302l13.581-.105 4.297-12.884c.555-1.668 2.914-1.668 3.47 0z"/><path d="m468.27 229.447 4.297 12.884 13.581.105c1.758.013 2.487 2.258 1.073 3.302l-10.925 8.067 4.097 12.949c.531 1.676-1.378 3.063-2.809 2.04l-11.049-7.897-11.049 7.897c-1.43 1.023-3.339-.364-2.809-2.04l4.097-12.949-10.925-8.067c-1.415-1.045-.685-3.288 1.073-3.302l13.581-.105 4.297-12.884c.554-1.669 2.914-1.669 3.47 0z"/><path d="m454.209 105.498 4.297 12.884 13.581.105c1.758.013 2.487 2.258 1.073 3.302l-10.925 8.067 4.097 12.949c.531 1.676-1.378 3.063-2.809 2.04l-11.049-7.897-11.049 7.897c-1.43 1.023-3.339-.364-2.809-2.04l4.097-12.949-10.925-8.067c-1.415-1.045-.685-3.288 1.073-3.302l13.581-.105 4.297-12.884c.554-1.668 2.913-1.668 3.47 0z"/><path d="m336.584 394.979-4.297-12.884-13.581-.105c-1.758-.013-2.487-2.258-1.073-3.302l10.925-8.067-4.097-12.949c-.531-1.676 1.378-3.063 2.809-2.04l11.049 7.897 11.049-7.897c1.43-1.023 3.339.364 2.809 2.04l-4.097 12.949 10.925 8.067c1.415 1.045.685 3.288-1.073 3.302l-13.581.105-4.297 12.884c-.555 1.668-2.914 1.668-3.47 0z"/><path d="m377.205 358.523-4.297-12.884-13.581-.105c-1.758-.013-2.487-2.258-1.073-3.302l10.925-8.067-4.097-12.949c-.531-1.676 1.378-3.063 2.809-2.04l11.049 7.897 11.049-7.897c1.43-1.023 3.339.364 2.809 2.04l-4.097 12.949 10.925 8.067c1.415 1.045.685 3.288-1.073 3.302l-13.581.105-4.297 12.884c-.554 1.669-2.914 1.669-3.47 0z"/><path d="m413.76 199.525-4.297-12.884-13.581-.105c-1.758-.013-2.487-2.258-1.073-3.302l10.925-8.067-4.097-12.949c-.531-1.676 1.378-3.063 2.809-2.04l11.049 7.897 11.049-7.897c1.43-1.023 3.339.364 2.809 2.04l-4.097 12.949 10.925 8.067c1.415 1.045.685 3.288-1.073 3.302l-13.581.105-4.297 12.884c-.553 1.667-2.913 1.667-3.47 0z"/><path d="m371.577 213.065-4.297-12.884-13.581-.105c-1.758-.013-2.487-2.258-1.073-3.302l10.925-8.067-4.097-12.949c-.531-1.676 1.378-3.063 2.809-2.04l11.049 7.897 11.049-7.897c1.43-1.023 3.339.364 2.809 2.04l-4.097 12.949 10.925 8.067c1.415 1.045.685 3.288-1.073 3.302l-13.581.105-4.297 12.884c-.555 1.668-2.914 1.668-3.47 0z"/><path d="m344.569 318.249-4.297-12.884-13.581-.105c-1.758-.013-2.487-2.258-1.073-3.302l10.925-8.067-4.097-12.949c-.531-1.676 1.378-3.063 2.809-2.04l11.049 7.897 11.049-7.897c1.43-1.023 3.339.364 2.809 2.04l-4.097 12.949 10.925 8.067c1.415 1.045.685 3.288-1.073 3.302l-13.581.105-4.297 12.884c-.554 1.668-2.913 1.668-3.47 0z"/></g></svg>