<svg enable-background="new 0 0 512 512" viewBox="0 0 512 512" xmlns="http://www.w3.org/2000/svg"><path d="m0 344.276v-247.173c0-4.875 3.953-8.828 8.828-8.828h379.586z" fill="#73af00"/><path d="m512 167.724v247.172c0 4.875-3.953 8.828-8.828 8.828h-379.586z" fill="#4173cd"/><path d="m512 172.702v-75.599c0-4.875-3.953-8.828-8.828-8.828h-120.033l-383.139 251.023v75.598c0 4.875 3.953 8.828 8.828 8.828h120.033z" fill="#ffe15a"/><path d="m512 141.047v-43.944c0-4.875-3.953-8.828-8.828-8.828h-71.718l-431.454 282.678v43.944c0 4.875 3.953 8.828 8.828 8.828h71.718z" fill="#464655"/></svg>