<svg enable-background="new 0 0 512.001 512.001" viewBox="0 0 512.001 512.001" xmlns="http://www.w3.org/2000/svg"><path d="m503.172 88.276h-494.344c-4.875 0-8.828 3.952-8.828 8.827v317.793c0 4.875 3.953 8.828 8.828 8.828h494.345c4.875 0 8.828-3.953 8.828-8.828v-317.793c-.001-4.875-3.954-8.827-8.829-8.827z" fill="#f5f5f5"/><path d="m185.38 125.55h326.62v37.27h-326.62z" fill="#4173cd"/><path d="m0 162.82h512v37.27h-512z" fill="#f5f5f5"/><path d="m185.38 200.09h326.62v37.27h-326.62z" fill="#4173cd"/><path d="m0 237.36h512v37.27h-512z" fill="#f5f5f5"/><path d="m0 274.641h512v37.27h-512z" fill="#4173cd"/><path d="m0 311.91h512v37.27h-512z" fill="#f5f5f5"/><path d="m0 349.18h512v37.27h-512z" fill="#4173cd"/><path d="m63.976 111.642 14.767 68.333 23.107-9.572z" fill="#ffe15a"/><path d="m63.976 111.642 26.32 63.547-11.553 4.786z" fill="#ffcd5a"/><path d="m121.404 250.289-14.768-68.333-23.107 9.572z" fill="#ffe15a"/><path d="m121.404 250.289-26.321-63.547 11.553-4.786z" fill="#ffcd5a"/><path d="m162.013 152.252-68.332 14.767 9.571 23.107z" fill="#ffe15a"/><path d="m162.013 152.252-63.547 26.32-4.785-11.553z" fill="#ffcd5a"/><path d="m23.367 209.679 68.332-14.767-9.572-23.107z" fill="#ffe15a"/><path d="m23.367 209.679 63.546-26.32 4.786 11.553z" fill="#ffcd5a"/><path d="m121.404 111.642-37.875 58.761 23.107 9.572z" fill="#ffe15a"/><path d="m121.404 111.642-26.321 63.547-11.554-4.786z" fill="#ffcd5a"/><path d="m63.976 250.289 37.874-58.761-23.107-9.572z" fill="#ffe15a"/><path d="m63.976 250.289 26.32-63.547 11.554 4.786z" fill="#ffcd5a"/><path d="m162.013 209.679-58.761-37.874-9.571 23.107z" fill="#ffe15a"/><path d="m162.013 209.679-63.547-26.32 4.786-11.554z" fill="#ffcd5a"/><path d="m23.367 152.252 58.76 37.874 9.572-23.107z" fill="#ffe15a"/><path d="m23.367 152.252 63.546 26.32-4.786 11.554z" fill="#ffcd5a"/><path d="m92.69 105.931-12.506 68.781h25.011z" fill="#ffe15a"/><path d="m92.69 105.931v68.781h-12.506z" fill="#ffcd5a"/><path d="m92.69 256 12.505-68.781h-25.011z" fill="#ffe15a"/><path d="m92.69 256v-68.781h12.505z" fill="#ffcd5a"/><path d="m167.724 180.966-68.781-12.506v25.011z" fill="#ffe15a"/><path d="m167.724 180.966h-68.781v-12.506z" fill="#ffcd5a"/><path d="m17.655 180.966 68.781 12.505v-25.011z" fill="#ffe15a"/><path d="m17.655 180.966h68.781v12.505z" fill="#ffcd5a"/><path d="m145.747 127.908-57.479 39.793 17.686 17.686z" fill="#ffe15a"/><path d="m145.747 127.908-48.636 48.636-8.843-8.843z" fill="#ffcd5a"/><path d="m39.633 234.023 57.478-39.793-17.686-17.686z" fill="#ffe15a"/><path d="m39.633 234.023 48.635-48.636 8.843 8.843z" fill="#ffcd5a"/><path d="m145.747 234.023-39.793-57.479-17.686 17.686z" fill="#ffe15a"/><path d="m145.747 234.023-48.636-48.636 8.843-8.843z" fill="#ffcd5a"/><path d="m39.633 127.908 39.792 57.479 17.686-17.686z" fill="#ffe15a"/><path d="m39.633 127.908 48.635 48.636-8.843 8.843z" fill="#ffcd5a"/><circle cx="92.69" cy="180.97" fill="#ffe15a" r="25.01"/></svg>