<svg enable-background="new 0 0 512.001 512.001" viewBox="0 0 512.001 512.001" xmlns="http://www.w3.org/2000/svg"><path d="m512 200.093h-512v-102.989c0-4.875 3.953-8.828 8.828-8.828h494.345c4.875 0 8.828 3.953 8.828 8.828z" fill="#82afff"/><path d="m503.172 423.725h-494.344c-4.875 0-8.828-3.953-8.828-8.828v-102.988h512v102.988c0 4.876-3.953 8.828-8.828 8.828z" fill="#73af00"/><path d="m0 200.091h512v111.81h-512z" fill="#f5f5f5"/><path d="m0 190.161h512v13.942h-512z" fill="#ff4b55"/><path d="m0 307.891h512v13.942h-512z" fill="#ff4b55"/><g fill="#f5f5f5"><path d="m113.491 172.072c-18.072 0-32.721-14.614-32.721-32.621 0-18.073 14.648-32.753 32.721-32.753.07 0 .138 0 .206.001 1.064.014 1.437-1.399.499-1.902-5.565-2.983-11.916-4.671-18.668-4.622-21.624.154-39.189 18.073-38.959 39.697.226 21.401 17.722 38.724 39.242 38.724 6.659 0 12.921-1.685 18.417-4.627.935-.501.557-1.914-.503-1.899-.08.002-.157.002-.234.002z"/><path d="m139.113 163.051-1.461 4.382-4.619.035c-.598.004-.846.768-.365 1.123l3.716 2.744-1.394 4.404c-.18.57.469 1.042.956.694l3.758-2.686 3.758 2.686c.487.348 1.135-.124.956-.694l-1.394-4.404 3.715-2.744c.481-.355.233-1.119-.365-1.123l-4.619-.035-1.461-4.382c-.189-.567-.991-.567-1.181 0z"/><path d="m171.656 163.051-1.461 4.382-4.619.035c-.598.004-.846.768-.365 1.123l3.715 2.744-1.394 4.404c-.18.57.469 1.042.956.694l3.758-2.686 3.758 2.686c.487.348 1.135-.124.956-.694l-1.394-4.404 3.715-2.744c.481-.355.233-1.119-.365-1.123l-4.619-.035-1.461-4.382c-.189-.567-.992-.567-1.18 0z"/><path d="m204.198 163.051-1.461 4.382-4.619.035c-.598.004-.846.768-.365 1.123l3.716 2.744-1.394 4.404c-.18.57.469 1.042.956.694l3.758-2.686 3.758 2.686c.487.348 1.135-.124.956-.694l-1.394-4.404 3.715-2.744c.481-.355.233-1.119-.365-1.123l-4.619-.035-1.461-4.382c-.189-.567-.992-.567-1.181 0z"/><path d="m236.74 163.051-1.461 4.382-4.619.035c-.598.004-.846.768-.365 1.123l3.715 2.744-1.394 4.404c-.18.57.469 1.042.956.694l3.758-2.686 3.758 2.686c.487.348 1.135-.124.956-.694l-1.394-4.404 3.715-2.744c.481-.355.233-1.119-.365-1.123l-4.619-.035-1.461-4.382c-.188-.567-.991-.567-1.18 0z"/><path d="m269.283 163.051-1.461 4.382-4.619.035c-.598.004-.846.768-.365 1.123l3.716 2.744-1.394 4.404c-.18.57.469 1.042.956.694l3.758-2.686 3.758 2.686c.487.348 1.135-.124.956-.694l-1.394-4.404 3.716-2.744c.481-.355.233-1.119-.365-1.123l-4.619-.035-1.461-4.382c-.191-.567-.993-.567-1.182 0z"/><path d="m171.656 132.679-1.461 4.382-4.619.035c-.598.004-.846.768-.365 1.123l3.715 2.744-1.394 4.404c-.18.57.469 1.042.956.694l3.758-2.686 3.758 2.686c.487.348 1.135-.124.956-.694l-1.394-4.404 3.715-2.744c.481-.355.233-1.119-.365-1.123l-4.619-.035-1.461-4.382c-.189-.569-.992-.569-1.18 0z"/><path d="m204.198 132.679-1.461 4.382-4.619.035c-.598.004-.846.768-.365 1.123l3.716 2.744-1.394 4.404c-.18.57.469 1.042.956.694l3.758-2.686 3.758 2.686c.487.348 1.135-.124.956-.694l-1.394-4.404 3.715-2.744c.481-.355.233-1.119-.365-1.123l-4.619-.035-1.461-4.382c-.189-.569-.992-.569-1.181 0z"/><path d="m236.74 132.679-1.461 4.382-4.619.035c-.598.004-.846.768-.365 1.123l3.715 2.744-1.394 4.404c-.18.57.469 1.042.956.694l3.758-2.686 3.758 2.686c.487.348 1.135-.124.956-.694l-1.394-4.404 3.715-2.744c.481-.355.233-1.119-.365-1.123l-4.619-.035-1.461-4.382c-.188-.569-.991-.569-1.18 0z"/><path d="m269.283 132.679-1.461 4.382-4.619.035c-.598.004-.846.768-.365 1.123l3.716 2.744-1.394 4.404c-.18.57.469 1.042.956.694l3.758-2.686 3.758 2.686c.487.348 1.135-.124.956-.694l-1.394-4.404 3.716-2.744c.481-.355.233-1.119-.365-1.123l-4.619-.035-1.461-4.382c-.191-.569-.993-.569-1.182 0z"/><path d="m204.198 163.051-1.461 4.382-4.619.035c-.598.004-.846.768-.365 1.123l3.716 2.744-1.394 4.404c-.18.57.469 1.042.956.694l3.758-2.686 3.758 2.686c.487.348 1.135-.124.956-.694l-1.394-4.404 3.715-2.744c.481-.355.233-1.119-.365-1.123l-4.619-.035-1.461-4.382c-.189-.567-.992-.567-1.181 0z"/><path d="m204.198 102.305-1.461 4.382-4.619.035c-.598.004-.846.768-.365 1.123l3.716 2.744-1.394 4.404c-.18.57.469 1.042.956.694l3.758-2.686 3.758 2.686c.487.348 1.135-.124.956-.694l-1.394-4.404 3.715-2.744c.481-.355.233-1.119-.365-1.123l-4.619-.035-1.461-4.382c-.189-.567-.992-.567-1.181 0z"/><path d="m236.74 163.051-1.461 4.382-4.619.035c-.598.004-.846.768-.365 1.123l3.715 2.744-1.394 4.404c-.18.57.469 1.042.956.694l3.758-2.686 3.758 2.686c.487.348 1.135-.124.956-.694l-1.394-4.404 3.715-2.744c.481-.355.233-1.119-.365-1.123l-4.619-.035-1.461-4.382c-.188-.567-.991-.567-1.18 0z"/><path d="m269.283 163.051-1.461 4.382-4.619.035c-.598.004-.846.768-.365 1.123l3.716 2.744-1.394 4.404c-.18.57.469 1.042.956.694l3.758-2.686 3.758 2.686c.487.348 1.135-.124.956-.694l-1.394-4.404 3.716-2.744c.481-.355.233-1.119-.365-1.123l-4.619-.035-1.461-4.382c-.191-.567-.993-.567-1.182 0z"/><path d="m236.74 102.305-1.461 4.382-4.619.035c-.598.004-.846.768-.365 1.123l3.715 2.744-1.394 4.404c-.18.57.469 1.042.956.694l3.758-2.686 3.758 2.686c.487.348 1.135-.124.956-.694l-1.394-4.404 3.715-2.744c.481-.355.233-1.119-.365-1.123l-4.619-.035-1.461-4.382c-.188-.567-.991-.567-1.18 0z"/><path d="m269.283 102.305-1.461 4.382-4.619.035c-.598.004-.846.768-.365 1.123l3.716 2.744-1.394 4.404c-.18.57.469 1.042.956.694l3.758-2.686 3.758 2.686c.487.348 1.135-.124.956-.694l-1.394-4.404 3.716-2.744c.481-.355.233-1.119-.365-1.123l-4.619-.035-1.461-4.382c-.191-.567-.993-.567-1.182 0z"/></g></svg>