<svg enable-background="new 0 0 512.001 512.001" viewBox="0 0 512.001 512.001" xmlns="http://www.w3.org/2000/svg"><path d="m114.76 88.277h282.48v335.45h-282.48z" fill="#ffe15a"/><path d="m503.172 423.721h-105.93v-335.448h105.931c4.875 0 8.828 3.953 8.828 8.828v317.792c-.001 4.876-3.954 8.828-8.829 8.828z" fill="#73af00"/><path d="m8.828 88.273h105.931v335.448h-105.931c-4.875 0-8.828-3.953-8.828-8.828v-317.792c0-4.875 3.953-8.828 8.828-8.828z" fill="#4173cd"/><g fill="#73af00"><path d="m191.886 251.475 28.635 57.271 28.636-57.271-28.636-57.271z"/><path d="m262.843 251.475 28.636 57.271 28.635-57.271-28.635-57.271z"/><path d="m227.364 320.327 28.635 57.27 28.636-57.27-28.636-57.271z"/></g></svg>