<svg enable-background="new 0 0 512.001 512.001" viewBox="0 0 512.001 512.001" xmlns="http://www.w3.org/2000/svg"><path d="m503.172 423.724h-494.344c-4.875 0-8.828-3.953-8.828-8.828v-317.792c0-4.875 3.953-8.828 8.828-8.828h494.345c4.875 0 8.828 3.953 8.828 8.828v317.792c-.001 4.876-3.954 8.828-8.829 8.828z" fill="#f5f5f5"/><path d="m399.057 290.007 3.222 11.302 11.197-33.276-31.057 16.375 11.673 1.373-37.274 43.797-.323-.928 29.77-61.643 5.97 10.125 2.436-35.025-25.918 23.683 11.641-1.618-29.77 61.643-.929.323 11.13-56.424 8.332 8.289-6.485-34.505-19.1 29.459 10.856-4.505-12 60.84-3.917 8.113-4.221 2.83-1.737 8.802-14.761 17.345 11.524-.928-2.091 10.6 4.076-2.732.394 4.89 7.002-8.227 6.438 9.601 4.407-22.345 5.815-6.832-.408-5.066 3.918-8.112z" fill="#4173cd"/><path d="m130.918 256.929c1.266-5.692.481-11.025-1.687-14.308-3.357 2.056-6.327 6.553-7.593 12.245-.586 2.636-.691 5.172-.463 7.486l-6.969-10.391c2.838-2.314 5.281-6.276 6.39-11.261 1.266-5.692.481-11.025-1.687-14.308-3.357 2.056-6.327 6.553-7.593 12.245-.674 3.031-.732 5.932-.343 8.505l-4.712-7.025c.236-3.567-.86-7.906-3.489-12.041-3.129-4.92-7.455-8.136-11.31-8.925-.919 3.827.16 9.108 3.289 14.027 2.659 4.181 6.172 7.027 9.537 8.303l4.318 7.168c-2.166-1.443-4.818-2.621-7.85-3.295-5.692-1.266-11.025-.481-14.308 1.687 2.056 3.356 6.553 6.327 12.245 7.593 4.985 1.109 9.61.576 12.909-1.014l6.457 10.718c-2.001-1.187-4.341-2.167-6.978-2.754-5.692-1.266-11.025-.481-14.308 1.687 2.056 3.356 6.553 6.327 12.245 7.593 4.771 1.062 9.214.618 12.485-.811l5.945 9.868c-1.838-.992-3.884-1.843-6.202-2.358-5.692-1.266-11.025-.481-14.308 1.687 2.056 3.356 6.553 6.327 12.245 7.593 4.562 1.014 8.838.667 12.068-.61l5.734 9.517c-1.647-.806-3.421-1.513-5.415-1.956-5.692-1.266-11.025-.481-14.308 1.687 2.056 3.356 6.553 6.327 12.245 7.593 4.348.967 8.469.723 11.645-.407l5.223 8.668c-1.437-.634-2.964-1.188-4.639-1.561-5.692-1.266-11.025-.481-14.308 1.687 2.056 3.356 6.553 6.327 12.245 7.593 4.147.922 8.082.733 11.193-.265l16.588 27.533 7.045-4.482-17.907-26.695c2.222-2.397 4.062-5.879 4.984-10.026 1.266-5.692.481-11.025-1.687-14.308-3.357 2.056-6.327 6.553-7.593 12.244-.373 1.675-.518 3.293-.553 4.862l-5.636-8.403c2.369-2.398 4.338-6.027 5.304-10.375 1.266-5.692.481-11.025-1.687-14.308-3.357 2.056-6.327 6.553-7.593 12.245-.444 1.994-.554 3.9-.523 5.732l-6.188-9.226c2.526-2.386 4.653-6.111 5.668-10.671 1.266-5.692.481-11.025-1.687-14.308-3.357 2.056-6.327 6.553-7.593 12.245-.515 2.317-.612 4.531-.493 6.615l-6.418-9.567c2.676-2.361 4.96-6.197 6.021-10.967z" fill="#73af00"/><g fill="#ffe15a"><path d="m203.034 256-8.828-52.965h-1.366c-8.013 0-13.673-7.851-11.138-15.454l.029-.085c2.025-6.076-1.192-12.653-7.231-14.784l-121.207-42.778c-6.87-2.425-13.341 4.484-10.471 11.181l13.144 30.669c3.782 8.823 10.336 16.173 18.67 20.936l33.623 19.213c10.044 5.739 21.411 8.758 32.979 8.758h.002l3.016 6.031c8.973 17.943 27.313 29.278 47.375 29.278z"/><path d="m308.965 256 8.828-52.965h1.366c8.013 0 13.673-7.851 11.138-15.454l-.029-.085c-2.025-6.076 1.192-12.653 7.231-14.784l121.158-42.762c6.889-2.432 13.377 4.497 10.499 11.212l-13.123 30.621c-3.782 8.823-10.336 16.173-18.67 20.936l-33.623 19.213c-10.044 5.739-21.411 8.758-32.979 8.758h-.003l-3.016 6.031c-8.972 17.944-27.311 29.279-47.373 29.279z"/><path d="m291.31 194.207-21.897-51.093c-2.782-6.492-9.165-10.7-16.227-10.7h-6.014l-8.828 8.828h-8.828l-8.828 8.828h12.319c3.123 0 5.229 3.193 3.999 6.065l-16.318 38.073h70.622z"/><path d="m229.517 282.483-17.655-26.483-16.168 16.168c-6.783 6.783-11.894 15.053-14.927 24.153l-4.215 12.644-8.828 8.828h-11.474c-3.788 0-7.252 2.141-8.946 5.528l-2.489 4.979c-1.642 3.284.746 7.147 4.417 7.147h18.492l5.886-11.77 28.143-14.072c.849-.425 1.623-.983 2.294-1.654z"/><path d="m282.482 282.483 17.655-26.483 16.168 16.168c6.783 6.783 11.894 15.053 14.927 24.153l4.215 12.644 8.828 8.828h11.474c3.788 0 7.252 2.141 8.946 5.528l2.489 4.979c1.642 3.284-.746 7.147-4.417 7.147h-18.492l-5.885-11.77-28.143-14.072c-.849-.425-1.623-.983-2.294-1.654z"/><path d="m229.517 291.31-21.454 35.756c-2.894 4.824-1.842 11.038 2.479 14.638l32.579 27.149c7.459 6.217 18.295 6.217 25.754 0l32.579-27.149c4.322-3.602 5.374-9.815 2.479-14.638l-21.452-35.756z"/></g><path d="m255.999 185.379s-26.483 8.828-61.793 0v35.31s8.828 70.621 61.793 88.276c52.965-17.655 61.793-70.621 61.793-88.276s0-35.31 0-35.31c-35.31 8.828-61.793 0-61.793 0z" fill="#f5f5f5"/><path d="m255.999 185.379s-26.483 8.828-61.793 0v35.31h123.586c0-17.655 0-35.31 0-35.31-35.31 8.828-61.793 0-61.793 0z" fill="#41479b"/><path d="m212.664 277.163v-56.473h-9.63v39.294c2.502 5.748 5.645 11.568 9.63 17.179z" fill="#ff4b55"/><path d="m231.924 220.69h-9.63v67.758c2.916 2.889 6.104 5.639 9.63 8.199z" fill="#ff4b55"/><path d="m299.335 277.163c3.985-5.612 7.128-11.432 9.63-17.18v-39.293h-9.63z" fill="#ff4b55"/><path d="m251.184 220.69h-9.63v81.932c3.016 1.626 6.23 3.105 9.63 4.449z" fill="#ff4b55"/><path d="m289.705 220.69h-9.63v75.958c3.526-2.56 6.713-5.31 9.63-8.199z" fill="#ff4b55"/><path d="m270.445 302.622v-81.932h-9.63v86.381c3.4-1.344 6.614-2.823 9.63-4.449z" fill="#ff4b55"/><path d="m163.184 324.98-6.268 3.857 10.532 17.483 7.045-4.481z" fill="#73af00"/><path d="m358.641 337.697-5.538-11.076h-10.148l-.526 2.671-3.918 8.113-4.221 2.83-1.737 8.802-14.761 17.345 11.524-.928-2.091 10.6 4.076-2.732.394 4.89 7.002-8.227 6.438 9.601 4.407-22.345 5.815-6.832-.408-5.066z" fill="#4173cd"/><path d="m84.493 220.69h-22.7l2.037 6.112-13.387 46.853-13.387-46.853 2.038-6.112h-22.7l6.112 8.149 18.625 65.188-2.037 6.111h22.699l-2.037-6.111 18.625-65.188z" fill="#4173cd"/><path d="m469.122 226.365 3.784-5.675h-3.784-15.132-3.784l3.784 5.675v68.099l-3.784 5.674h3.784 15.132 3.784l-3.784-5.674z" fill="#4173cd"/></svg>