<svg enable-background="new 0 0 512.001 512.001" viewBox="0 0 512.001 512.001" xmlns="http://www.w3.org/2000/svg"><path d="m503.172 423.725h-494.344c-4.875 0-8.828-3.953-8.828-8.828v-317.793c0-4.875 3.953-8.828 8.828-8.828h494.345c4.875 0 8.828 3.953 8.828 8.828v317.793c-.001 4.876-3.954 8.828-8.829 8.828z" fill="#ff4b55"/><path d="m260.119 155.97 23.609 70.79 74.621.578c4.172.032 5.902 5.357 2.546 7.836l-60.029 44.329 22.509 71.147c1.259 3.978-3.271 7.27-6.666 4.843l-60.709-43.393-60.71 43.393c-3.394 2.426-7.924-.865-6.666-4.843l22.509-71.147-60.029-44.329c-3.357-2.478-1.626-7.804 2.546-7.836l74.621-.578 23.609-70.79c1.321-3.958 6.919-3.958 8.239 0z" fill="#ffe15a"/></svg>