<svg enable-background="new 0 0 512.001 512.001" viewBox="0 0 512.001 512.001" xmlns="http://www.w3.org/2000/svg"><path d="m503.172 423.724h-494.344c-4.875 0-8.828-3.953-8.828-8.828v-317.792c0-4.875 3.953-8.828 8.828-8.828h494.345c4.875 0 8.828 3.953 8.828 8.828v317.792c-.001 4.876-3.954 8.828-8.829 8.828z" fill="#464655"/><path d="m512 247.172h-262.556l-249.444-137.627v20.169l228.897 126.286-228.897 126.286v20.17l249.444-137.628h262.556z" fill="#ffe15a"/><path d="m3.531 421.776c1.491 1.149 3.27 1.948 5.297 1.948h494.345c4.875 0 8.828-3.953 8.828-8.828v-132.413h-256.002z" fill="#73af00"/><path d="m503.172 88.276h-494.344c-2.027 0-3.807.8-5.297 1.949l252.468 139.292h255.999v-132.413c.002-4.875-3.951-8.828-8.826-8.828z" fill="#ff4b55"/><g fill="#ffe15a"><path d="m76.452 206.487c-25.205-7.929-44.234 10.386-48.583 19.812-3.683 7.987-10.525 44.167 23.581 49.936 34.104 5.77 33.72-26.412 33.72-26.412-1.538 5.129-4.296 19.745-28.914 19.745-9.234 0-22.501-13.719-20.001-28.848 2.353-14.236 15.07-21.518 24.682-21.924 9.102-.384 30.322 5.898 30.322 31.734 0 29.039-29.93 32.31-29.93 32.31v17.535c26.053-2.554 40.797-16.986 44.699-40.103 3.888-23.013-3.948-45.722-29.576-53.785z"/><path d="m48.544 249.549c-.595.755-.911 1.694-.927 2.655l-.074 4.716-.918 1.601c-.331.578-.135 1.316.441 1.652.583.341 1.331.141 1.666-.446l.941-1.646 3.766-1.364c1.141-.413 2.058-1.271 2.554-2.378.984-2.197 3.097-6.231 6.521-10.44 3.424 4.209 5.537 8.243 6.521 10.44.495 1.107 1.412 1.964 2.553 2.378l3.767 1.364.941 1.646c.334.587 1.084.787 1.666.446.576-.337.772-1.074.441-1.652l-.918-1.601-.074-4.716c-.015-.961-.332-1.9-.927-2.655-3.155-4.007-6.511-7.158-9.818-9.945 2.643-2.484 5.631-4.855 9.394-6.686.871-.424 1.326-1.401 1.101-2.343-.307-1.286-1.713-1.961-2.911-1.401-2.522 1.175-6.859 3.49-11.737 7.047-4.879-3.556-9.215-5.87-11.737-7.047-1.198-.558-2.604.117-2.911 1.401-.224.942.231 1.919 1.1 2.343 3.764 1.831 6.752 4.203 9.395 6.686-3.305 2.787-6.661 5.939-9.816 9.945z"/></g></svg>