<svg enable-background="new 0 0 512 512" viewBox="0 0 512 512" xmlns="http://www.w3.org/2000/svg"><path d="m0 150.069v211.862l141.241-105.931z" fill="#464655"/><path d="m70.621 88.276 158.897 123.586h282.482v-114.759c0-4.875-3.953-8.828-8.828-8.828h-432.551z" fill="#ff4b55"/><path d="m70.621 423.724 158.897-123.586h282.482v114.759c0 4.875-3.953 8.828-8.828 8.828h-432.551z" fill="#41479b"/><path d="m56.889 88.276h-48.061c-4.875 0-8.828 3.952-8.828 8.827v36.21l154.974 122.687-154.974 122.69v36.206c0 4.875 3.953 8.828 8.828 8.828h48.056l167.263-132.414h287.853v-70.62h-287.852z" fill="#73af00"/><path d="m85.333 88.276h-28.444l167.259 132.414h287.852v-17.656h-281.709z" fill="#f5f5f5"/><path d="m0 133.313v22.518l126.53 100.169-126.53 100.173v22.517l154.974-122.69z" fill="#ffe15a"/><path d="m224.147 291.31-167.263 132.414h28.445l144.96-114.758h281.711v-17.656z" fill="#f5f5f5"/></svg>